<mxfile host="65bd71144e">
    <diagram id="hk-LRObPig7_edcH2kdc" name="Page-1">
        <mxGraphModel dx="1243" dy="513" grid="1" gridSize="10" guides="1" tooltips="1" connect="1" arrows="1" fold="1" page="1" pageScale="1" pageWidth="850" pageHeight="1100" math="0" shadow="0">
            <root>
                <mxCell id="0"/>
                <mxCell id="1" parent="0"/>
                <mxCell id="2" value="" style="shape=image;verticalLabelPosition=bottom;labelBackgroundColor=default;verticalAlign=top;aspect=fixed;imageAspect=0;image=data:image/jpeg,/9j/4AAQSkZJRgABAQAAAQABAAD/2wCEAAYGBgYHBgcICAcKCwoLCg8ODAwODxYQERAREBYiFRkVFRkVIh4kHhweJB42KiYmKjY+NDI0PkxERExfWl98fKcBBgYGBgcGBwgIBwoLCgsKDw4MDA4PFhAREBEQFiIVGRUVGRUiHiQeHB4kHjYqJiYqNj40MjQ+TERETF9aX3x8p//CABEIAYQFigMBIgACEQEDEQH/xAAsAAADAQEBAAAAAAAAAAAAAAAAAQIDBAUBAQEAAAAAAAAAAAAAAAAAAAAB/9oADAMBAAIQAxAAAAL1QJQAEAAJDQTfH20k+U3rl7CWyJbCKGIYIaJuWMQVIhuWMQOXBo5ChAJyWJgAsuaRgKAEXFoAKAkjTOwBK4vNNBNQAIvNNBAxCzcUjAUAIuLAAE0gMJKCFpmN0ElMyKogsJKRnpnZRKLhSavMNCGOSTUkWhCRcUMAACbz0ENKTUJTTABTPSEsAAFQmjAUASKixgBNSDGIYKakpgABLTGAJUiKKILCJ1kToLAUBAAABGekWc/blrXLtz6kdWekZuyAaJqaBgohIqnI3fm9htFwUAANVNSlACKQpuRlBJQZUUIYJgZ6Z2MkKSkd5sslF5kmrhlJMed5mgAAEXFjEDEE3noACqayTUTUAHnpkaiBiCbiwBDAIvPQABRcJYAwFIqUoGJUGTdElMgoM6KIdBMayDABA4cmpmyyAKzoslFqQV52UIHFSU0wAEmigAAEKgABNA0wACakoApoUAAAAEzuAtwFEgVnYIRohCuKGIBOBjZza2xxUlADAFNSUAACri7eJOvRMASzeeiACiAi4tAAIviOquLc2ADPTM0TCSgidJGrCVYZUWSUhMCNIZRKLyvM2ICyQvKoNRA3LIvPQAFYSTcXAAEXKU0UwSpDRtA0BFxYAAnI3NAAripSgFAESGMAACamgAEqkTKIdBMaSA2SWGZQJ0CGiLllEhUiKcMsgKkRYg0QKAAAACRU0DTENE0qJKCVaIoYp0RyVfIdzbJbBTclCBkscPM2IzNzl1NObZjpAxBOmWg0CgBF56IAh53mc3Vy9RY0GemZoAACyKkYAAGemcBlzax6CcU6TACUz0zs0AlABIdjTawRzSdN8PXVlkROsCphKsJjSKsEUQCvOiyQohBpjZZDKh5momMBVF5pqJgAS5oYACZLmgaak1KNzQAgipKaYwCQYwAAJqaAAJqRsYhhI0AwoaUAAAE0k1NgACaFU0CYE1IUmAIXNtidQAAxTUFgAAEVJeWoc0aWVU2IYqGJnSskoIdIzoolDFOuZVJFEhUODUlFkArx0LICyGTpjsRzdihxWdaMAAlM9MzQAACKi7GCXn3ywjpvLcYgIvM0csAAioTQQrQJF56UxME0Rc0NAEXBRQQWETpIFhBYZUrJKBDQqhlOEaQkaOAtSikkaCBuWJzQwATQqmgACakoAaGSAMAoBQAAATSZ6RRRIUkhuGWQjSCTQkLSBxUGggbQEXBYAACmpLQGDvQmosAFACLiwACahGxnNjva65aZpoAACkXCWAomjO40RDDhddBNzoQ6ZEbZjKZBRExrFU0iiQV84dMy4yz6QnXG6tSS3lWdmrVSgIUXFmgECaqLmwcuHNRRcsAFIvNNGpWxAkNKE1ASRcWDAE5CpoAFIqEtywTRLGNUEFozooksILkmiiSgmbkdIGSA4ooQWAoAAATUoqTBANElNMAAmpGMEMJ5uvEy6ObsILCJ1kCgkpEgFCwOg4cT0dM6KJCiQV46FEovOoNBMnE3HlrmaAAApncJoAomjPTPRAJHzllaZ6A0SvLTOzURKABnc2WBKxMw5uvlTo3mlE5RXFi4+2B568ldKuZUWJmF1DsiCysrVktgovM0cosgLzcGrgLIBXlZbzopAReegwBKsymgpAqjTNLAAATmihMARNRYwAmoKaYABLRQAACc0ABQCgAABNSg0wTBReZo0wACLkoAABYbyc3Zw9owBS0WAoARU2i5upHEtqNLy1ABRNE3FiGE5acCd75+ogsORPM7CggsIVMByMQTedjh4la8HYO8qNFDisrmtBCsCJFSMAARBPOb9E0pF5pbAAFXN1Y2a8PcSzQGdzSNpqAGemegACz0zrQCAAIqbLGSoaIqNLEUSwtJszssgsM52zApmboJm0NklOGK86KcBalDvNlkBcOS3NAAJAUAABFzQNMYCgAABFyiKCSkKbkbQUSFQ0WSFKUXk0LaWUTJQmUAoARcUjAXg7sdUm4sBNROELlqwA5dfOTu6ePrV4bB58daTpYKAGdzaCYomGWuWqLyfV8w36iR4dXGdYwWeuZSsiHQZOnUqwk5qNNJ0IdZGmd4HScXUWQ4rOsq3IIsgFeV1bhxSJpaRcACmWmdmgEoAS5pKAUTRnpF2MTlJco2qABTPTOymAACQxjBDRNTYABNSDVCGEzpAFhBYZugl0Eq0RQwaCwFAAACLhKAAAIuSgAACakoAQ0SNFACjQIasksILDKiySggpGcawPRIvOoLrNlvMLzcGlSFCRUVzHWY6qwCLz0AAADLSLTn5+/JY01yTTk68zQCUz0zrQCAAzvOx8/SJnyWq6bjExI6jpw3xOb0PN9CGAqilZQEowM9M9bJVkuc6whlvy1W2PSRG2YyggsXK1SNpRaktV5tLeYaQpNXmGhmRpk4rYmgAJc0UJgARcWAATUjaYABFwWAABNSxgAqQmqBMGAoAAARUJYAxATUlAAAE1JQAAEoYwDA3gWnGHacIvcuNJ05c/QdFJqJpJrKTcih53BbTUADPTNLcpbGgx2lGULBYmNlkFhBYYW6ILCc9czQUkac3QXlUGxBFkBOmV1ZDh56SFpnPvSoz0zOL0BwALnXN1WMCUAM9M7SkCmd5oed6fJXaClfF2RZz9vF2yiaPNdxZ6TCUTkVTSCYqm4ssTgTCY0mkWELUMXVElhBYZ2qEHKdcpGjzDQzZUiNCAsgCs6LEwBDaBoYwFAAAFNSgUElBM6SAwTASYMQMSFedFOGUQBWdjaBiBVnoACiaRJ0c2faL556GaY7LFek4w159dDj79QACQpMbMl6DlZtfJR0nO43WSrSuVnTPIR0UnZY8ZdUMlDsGEoAZ3F2AyJnSAB0iyM42zplkQtIrg9CNABFEELTKi3ky8ya2M3FqGr4O2LN3lrAAvLZtZSMJdouEbGDTVReaaAUAEoCmnDTK4tc+ksAXn+jmc/ZydRnlnJ2jRWWnKR347BLRQAJhFKhFBKuQKCS0UAoAACKakoAABJyWAAAhMYAAEVNDFibrPI3rPQT4+ksYRSoStLKuUToJKCY1kToJGBncmhLGSCvOiyGUpZlpNkqxc46ISNKcqYgz0iy89SXlnrDi2cWbPmiXsXGJ03wWdk8zWseppy9dgACzWNdZjpLQBF56IAKJygxiGBnpmWAMjRYc2iVMzNC3GjROXProznbMRbiKopRUmhAWQA4ZVZhrlQef6GaOh50VhrAtIs4q6wSqSstWJiEhF53JYc5vWWhQARcFNMBI0AUAAAUXmmggYgEBQAAEtMYAAE1FDTR5/W7FU2c27xXdNCqaBoHF5lgAALPXkTZPVTDozJqaTQBQCIvPSwAlACLx0qpx3Jl5JsUyCyJz2imqCVZGNFUlaEEi0xssgi83nW5BFkBUS60ztxhWsE68bOs57Nc3lW751HScqOvmzCp6rMdwM7ixgKJyReNJqc9rrDlLYDEKS1ZQEAFRUWMAE0JpFEamcbwRVszNERnvAqbJVhmxjchQkOWyyUXBJo4YyQ1AUAABFFIYwkoM22IoJKDKiyRghhFKgEDJAvOhDCkkU5ZRItQ4TQQraB5aQmgCk0jm6JtGAoBEXF2AEoAcek9NDCOfSGmwmoAEXnVgQIDPLXJNlj0q4vJI34e4AAz0zNABMDNq6U6EZPRGNrQyz6Q5J7YrGi4HTqI0ktyFmZC0xutCAuVJdZhcNRnl1xWd3EU8UbHKq7Xxkdi4yuiuSzonFlZ7s5dOmjLUAi4KaYACmkMAACamgaYJoGmMAIuChglSLAUAABJTCkAAEtUAADRNTQAKAJFzQAKJpFU0ACk1CW01EwU3CUqFlWJE6wMoJKDNlklBDoMtIsBBSUjvOiiSJV51q8wsgluErNVLhiDHPTapsJVnpjZPRzdMAAZ6Z1oBCGiLi6YnKIDOaEWOfYZ3pmRnrJ0AEuLqkENARcWANVNQlMdJURGe0UFhC1RjXH0mhj0kmMmtxqJoKgk0ebLIC8xGjgLIYEsoAaYRUWMAE0FJgAEuSwBAFgKAAAkiRbxk6EgVQyhAwQqmgAAEKkwACakbAAAi5LAUACLgsAAAiklAKAE1NIASgFReegAQReZoAAAZ6ZJoAomGVxpYTRLC0DDSdLJVkRnvFTVMh0EZ75lMkogFpjZZAXMwXnbHcEaZvMvC9hgEXnoAAAEXnoMBTPTOy2iGAqi5sppwJqvPvfM6mnEcXfzVprGgABNSNpgAKagtoAAlOiDQMzRGdOiCwmdJE2yaQCSNCAshG4CgAAJDVHm9T1KAJaRQwSpEUUSUEq5EyiHQTOkDZJTljhotwjQgLgk1JCiBW8tEojI6CWqrPRABQAi89AAgzuK0EDEQRedaCIaAz0irGglADPTLWgCDLXKzUCAAUMqgIADLXPSgCUz0zSwYmAZ6Z1SsjN6BhZdQWRKtGdOqh0gzuDUgNDMGQzQgNCATiynITy9FDuaAAIuCmmAApaG0wTkm89ChA0IKiwaYRcFNMACUwYAIDQBQAAEipCuZ4HeAcnB17lbIMc11Cz15zVYwd3LryHfL846+jms25NA2jXA2ZAHHieqArTBIEoBQAi82nNpzeiSUGVzoSrCC5IoogtERtkWUElci9WemSakyaGQGvPoaGZFmZS1xo0ebi8rzrYhxQmZ1F0wIGgi8taAIM9My2mAARSqgIU2jLbHYGgJqCqljQUZ6ZmgnABUNUMABoi4sSsIWkkumQWETpIFMkYSCKchSQTplRZIVIguGU4oqHBo5ChIBMYAho0AUAABM3NEWmUkidIZaQY6tDQzn6UxRpBc0GOlMyNYKy2Aiw8878jcAAFippGIV468xnhp1JegLw6voIvOxiAi80vnml2ri7RciyT0Xk4OfPpXaHNlnDa9QccdGnL1WM4tI6eboyHrngdZz9AZk1umRKsMKdVBooidfLrt0nQg0IzmarVpFmbCsw1Muc6zl0K15tTUzcXmKtHLhidGWuRblw2mZ6Z3U5zjHc+LsIuKKaYRedWAMAJqCwAAIaY2AJompsAYpuRMolWGc7QItkKwzKCXQSqRsAoAACRU2JgJVIqmgACakYMQwmbkapklBCuRqwkoIVADYgDPSKG5CiALysogC4AvGyyEumNciO9bM9kLjl15JsJnL0pmfN0Iz3HLgujM5tbtI1x1MI6FWOfcRw98UTgtK6AIEwx1y0o5ujkjm6l0k8uwa6COfbOzUAACKiwz0yMtcOox2z1AYZztnQXMRhXTUTtJOHWo59+fQq1dRRmZdUId42aEBpmQbGbNCGVDk0JYwCKmhgACIvOymmEXA2qAAIuCmgARLmhiABGwCgAAJFxYABNSDTGAKakbTAAUXBbEMQEXJYAAEVNDAAAzuLGgGgI0z0BAonCO5oECrl68k0TZKoWc9skooJLDC1oZmiILDDRaEFhOesFFAmkVmSbmbLMwWvPoaKAAzNWnFSwmdMzRpgAZ3FhF5GHUgnWLAaDPTOrw6Mx3nqQhj5OySdOTsjO89KYATUBSoAAy1zKYxDZnOkCdsgsMnTJdBJSMtEynKNIUmrzZZAVBBqQGhAJxRSABI6AFAATSZ2qENAnJTkKJCpINHAWQFQ5NSAoQBLLQAATWegAA0E1noAAAibz0ATDPTMtpgCDPTM0AAQPLTM0EwEzPTKykANEZ6RdDAMtczQagaKhzYwAAMtM9AAgy1zqlZGbtmcbZ0OyIWhXPotCSglVmaVmy3k40ycVsZsshhWGhpz7Mx3Az0z0AGKLgdJgDFFwWDENEgwYAARcWDAEIVTYNA4qSgBpoU1IFAkwybCVojMtHUAoAE1KKpsQ0E1JQmAARcFNMEwUtFJghhmyiSwgsMm6JKCVYZWrJVBJUk2qAEVlUGrzRoQGmZmbkI0MwqYDYhGhmC0w1LIZcqC6zosllY65GomABncaAAABjrlqAEGemdaA4AFhFWMCAAy0z1AAM9Mq1E4GFGemZYwJtGNqyVoGZojG1oQ7DNa5g6BDQ4INzNmhmA8w2M2WQBeOhTQOXI6ihgBNQU0wAJmpKABNGdSxoUCEdgFoAEAhQDQBAFgAAEAUAMAlAUAABFAMAEBFgNAABFgAAQA6AABZgWwAAMgNUAAGdgAAAGeoAAEAUgJADMC5AmgJ2AsAADHUBgQZBWrCAAysKYEABloFMCDMK0AGAKANGAIIzsKGAIDPUAADMC2AwBZgaAAAZsCkAICGA0AQBNAbUAQBbAEBMgUwEAZMAAhID/8QAAv/aAAwDAQACAAMAAAAhwAc9/Wz9ltBBFhxBfZnlFhJ8B08xgFlElYgFNMtgMwQpBhl1JR5RZF51x9wlt99B0p9oRBoFAB1BRRxtld9tFvte3AE84RUu831dgNtpRV4JN1LBJVNpr91lFdpZB59FNdBA98wUM8AUgIgtVEN5JdJJ1tpp5dBB1VZ9FJBBhd9R99d999s88p3t/wA70YfZcSSVQbffFQRLQHJQUUbTWbbTXURadddVdVcYcfBPpu7ZMbXdcdXfCYAWfbQSdSQWfcbYQdfeXQSHXPPKVafYcQbVb+YUSeZRXWcfTXOKRXXdffeNddbT7VbuXvgWA5Y4x+/URZQZQaRXcPSZfcSRaMSRbfUefYRffccYTdPPPcTfQUWYRdVebXfWRYefDfTYSWbRQYfZeRTcZ7YQthvvdBliuqsozm+eRZXXRXbYcWfcUZXQQQVacRdVfcdWddfPPMazSURfXUQ1bdfeZXUVfPAIBUcCffCfNEfcUaRST6TcVWwyUjehtc0cT1bfPZKNSJQYQTSGbdaUZdYRaQfIeesPPPGd3TbfSdbR13QQZZSTZQVWRSWbeVfPfFPfUTbiRuufiu4iy76Vgyd/dQcdcRaYUbVXQZXVMXbXSRXQRUXWbSRPfPPOeWVZfUQcZfdfVPIdYaQFCIEYYUzWQZRUQQXW+fIqw1z0gxwlQul6gggvEnjQhnYpcQdSeXZaTbTRTU6dTPaZKfPPMQ9aeVWSXTURRVPJQKafNdBBzHO5AMUEIQQddUfz9WTQcfHe5d78bzawkfspwltSj21gYTUcdWQVSdccaJJVnoPPPHfTUQUUQZYRVfUceQTYVVYbbcZdfEHKAMXDVWpPuvs1ZfQY9tXpqcq4aZTfFc0NYSSf2WYSSQYcQVfVQQbHcGEfPKDdTdffVSQXXWVTHTSFSRfdPFZBDYMWQQRcZUVXX45X591SU0vQgt1iycrQhn4kkwtW00fUQRSYUXTSYSTdMaBGPPIKRfYfbWedbaTVYbWfOQVMdJLBLMWHEBmOAjcmhZrnYw5a4P3RUd7w6W2oQwrVr0wj4fbdwUfXeZeZdVXWKJPNNPOAY/aZQUTQQdTUUcabVPcdecefWeUScfbAYhuQmhZs0/p979cvm9q0/wBtsI8vCmU3fFl20WVGa133Ek2H1n1hXjizSgBX210EHUEU0VFmhxywRRz0TTUAok44RzXltF0vEFUkNVPs0uO8d3vN/cP8JJO4/c4HeE0X1WHCGV6lnFXUBVCC7yAFu2GlGHk11Fm0UGF0w1SQ3RikzaH75S78oISp7eoNO98OPFOcMME8l3Ef0EEXfGMtWNmnVWmlGkHH30G3zzVTHSiAnF0lF2UFy3Exn3y2xS1BXEkVk2ml1WkNG3r1v/2K1/8AhD3VKab7bvXNff36vxz5dRZ9BZ5RJBb1JlVRdVoh9MB5EkBNvRFV1B9tR951t5QcY88Bg8V+4M+uGCH+S9Syt/h5hwl9JxtpvHL/AA//AN8JGcKGtWUsHFWkkE2X1NHUH3qiijCTwxlnUkHV2EV1m3Wmlm1F3HwFnx3yhzrww6A54VpJjLUO/X/+H7Pu80+MH9v23h0Wn0020knX2k0mFVUE1mnUHmgFnzwnMElcFXV1V2mkXHnRC3ziXnm0mUmUGFRUUmkvlWMB+tX+9m8uv8H9MO+u93HP31XUVXGGE1lk1HE2nkX0U3WgGHzy3vnXUHS0l31mVX2kED0wyXCgwzlhhWe6mRbE8sd+kMPTfWHN3XW22FxtG+lG+u38PeNVVUVWn2FXlnHF3TghTBzjSlOHUc11kGtkG9El9kmGEnG33mQ1USUlk3aYuvGdPUNO0tc/ctPN98/e+U83DO9AmUnEFFEV2GkUXmlVk1W22knXzymMFVUH3kH2U3cEHUEH11mly2lzFlxH0EkUnEUx0W/nmx3VNeusN/tevc2VFwHt1WEF10mnUEnWUV/EZrGxEVlGHjzmNXUXEOw2Y3GlHFH213G1nmHGXFEEFFk1W9WF3e3X2nX93OsXdlBGE29RFmgX0Hm2Hm0nWmW2GEnGElVUDEmXWnxzHnWFlUOlE5mHfHF81kM0/NF+HEAEHUW3zlW1lHnHnGFX+lMoFMPs8V8EFVUkE02WWVG1EV5mW2V032333R1GU/txx3130F2P0F2EF0F312H2F0EH+EF10ED32EEED154KDwH0OEMPwN9z/112GF8GEEEGH0GF2H131wBwBwKB3yEH2MP/8QAAv/aAAwDAQACAAMAAAAQMgcplPQa7rmfjDXbZngvTv8AUK0PLwIRfHbGBmSNXNBrFdeZaec1QTgT7y6pt8sbS9DyVF3VCfKW9a98X077m6iEsQIBPLJDWrzq94n9+U7+rz56R16v16C4wh1g0xrYeDbcwJeHBvBOJFNAKNTGbVeqe6ccwVcjv0oewjW8y6920vepv1lrPPP7AzeVL5iZx213we8dB+dCQHGfaAHfnZfkUfj2VPXGUVfbVPBKmuxVMZeeefWcEWPbzUedbS6Wjz6sltkMvhr4nPPK/wC+daN+dfysNP8ArKKqGdl8cEQFId1+98bhJ23lRycCa943MTX/AH/AUeARUg0nVN2XWxSfXDTQU/6d2WWfRqopqtPPN28X21V57UiWf9aSmQS4NQ4ZxnIj8xhW3i37tyZfnughYMuisguiznwDUXWSoaz00yl2145o3tk42+X6+fnmzm/PKDbE6zmzt37D4yhbWneSUKHHOY6HdaKbCNtYDbeOe2AWbG29ZtGrvd5cD8ZfJvPOWDZcZQfNSVe8Yynqqol4ltc/PPNQOw2x8mw5EI8q1zv7q2a75893UtdO6EBNZcTiTttVih7gz01Rl2IiQKdFf+p3b6QfAZcWJXaS2bVgZho1k9m/vPPLz57uw/1wcxwX+IO9zuwNIBPg8YBfS/cWvOjG+hHg979qq06lbhp+pjvuDphcpixnaPOsd698or1ttPGitwhs6vPPG0Flg66kwxt2w4KJHJy2BaMBHrI6DA2EA3xAEfn4zHWbPVUcyA0/A9U8nUjgxnpWq+yvZYWcdcfVnybtl56nbT/PAJw80h7xw8QzSC9e6z89x5+w7hVY3JIFAFZBCfkNqpp7cNdB9hdqsQq3OBDbKD0AaTBBjAfeWYfDfi+c/fb9820vOND2z31zx5y00XaeOTVCYyWbDL4FC/B5+58ufFeV5z2a0niYP7sQtv8Aq416UJbAbJeJU8/DTDpbh4KLLrZbKt6edvyhybpOY+uv9PusfMFE8BUshlSiTRzFjST5BzqWLKHpKTOrxLHYDxlII5gsoR+oR7NeKp1Fle3JWobo8YpOHP8APTfHQE5MDX/XvDhTfd/PtBT0pnJFjff99NRZp0deupiKl6X/AIi/1zMsg2u3kwn2i28GotDrcJUGPKUSm2SuMSQRmn7Vw12FAPk36w8zwcR9a0zMPrBLLGRNH1JrchvHBSZ2Wc5VVTOtPp2Bz6r7Dizr4xwns8u6yiW/VWQeam/tsRnruor0o+wWHPRE+45y6za7z24x68wJ4IGwAD8DiVvgMj/nrMvq3hw+4u41G96rxGsJIClJaQT5F29c/VReRdbnbU9axq2zyH1j1HNX3fax8f8AQmfCc9REhhFzmuUGunU+n0HvmlYFcMkLH6Nx/cjpJ9+rc+B99Lq8197RSxlCrPabpCbDL1Mp+u4A8Krxj14iPr+fNWfeF9d10SiYDBlwwH6RA5Jr7cLrF7L1sjg1UUzzX2wYLdsL/wDXSAPCQrVwPYY5ghdjFtgkCG2dDXTDXQwlm+/TPCS/zvDanLm79vfuDLyb00aiQQ+AqylW+MexXTY/H8aOP34uykuKscTyCi0FGldgZod5DptGddo9acETAdAA1Unz073abav1/DN90UPAEJl173prXqjYclV8vwlDjCTI/rkTmzHgfnav6KZYfxwJlMosweq6OGi+O2GuyGuGb01A4ZM6SWjTSvmn3SPZ+V4r04DoA+sFq8Dn+tgOQ/TLnQXLHaMceUIAUckpysHdQr3sTT7D3Vpx91l1FS5K6kff/LjnUY5UrrQvGGrMeCQmXsrTSn2Sb/vU3Z66J9kyOm/crX8XTMjjHvWXHyDnq2sO0tm+D9kMUWUoZJRF5tnle/1mE06d10AZY9rfhOP/APpzUAdZ8YVHVcHOYSNuaCoyvtBLGGYBNMFizAPw+g1+hxxh7qcb6c3OTUBXteFoPtiKoNiYeg1jrmXRCNzJ7nsoD/gSswl/wvaVuR8rUfyRofSrfRHa5JUt5RFRYL9N6uLtBYIAAn1ukxjfsSLWbgVQuWT4TWjUllL8GFDloMGes2j63Kk2R/xNuhDkuO7II2Nui9gnnkP0itAWPTUGQaLzHxkB/wBpOA/Va1VqQAaq6R55YrnDl6E5fUK6k3CX1ceCD35958Nz8OJ2N51352MIGIJ3yMN52GP2GJ2CGHyMEP3/AM/8jjd/j9DcdB+BDCd/i9+hBgB9edjD/f8An4H3XYIXYw//xAAnEQACAQQCAgICAgMAAAAAAAABEAARIDFBITACUQNAElATQmFxgf/aAAgBAgEBPwC35fj/AA/EbPjUzw+Py8zxT/ZnyeH4Gla9Yu0zpnKGek9AwytsMYZQYuKELMHZ4U/Pxrionz+f5/N5mHxP8XgAeMmfJ5AkU0KSvFLx06sK2tunBuPRoMoZ6x2GBGC0XBisPSUGHoM5Qyxt6LLOUMs4uOUGP0Y6R3nKGWHpnSE2ULjpbhsqJqylgZ6T3hhiFBjt49TdwwzDBl+3oMoZeihNC0Xcdo6xmHoDD0bjlDIhQy9F6DOUM2cSomgzlbemTBYPvDPSIb6Qs5lJsQobejdtDL0UGIc2VNhKGbaGU4HWWUEOkXlC4YWjCzlDkiFCnNxVIcoPVozCg9M5W3oszn3OffSbKHsH1TleOYV/UvTK2LtLlUEFKwhaLoZRHKD1ceodwvPXwti6j0GcwGbeihC9zE29X1EBlBOJxQTiwCUMoekQodYvPWUMsOvBdeAzlDK49zRXM9Sk3cMMoZsK0hCyufaqXx6/QFno0ybRCtM6WwwhSGnpmyhmrRChdpCHNhLH2ChmHo0Ligxi0WhiFC+tNSv+JxKC4VVOgQfUELKGbg9Bk2g3HNlCqIrYYtEKCCN1YCZWVlYaepQdFLBjsLNou0EIQhl6KDEOUGMKphW5x6lBNFce4VSUlOwWhGDpGLCjcUM9OlxCzlDKoZTiUKOkByIcobZwEIcoPTKCrB1UXMoWLzBbTrKDD0XoMoZEObRhVMJW3xQzhHSCpOXoM5W4UIe6pgNvDp9ek0yzbowrQZyhl6ZW3oys5hJZp6lBOAqTXWGbR2G49eh0bXHqaM4lRNBCHKEoVq0ZerRmG3Q+lTqPcHpllbEKD0zpDMOUNysqZpnM4gp6Rp7lBTKoZQyhm4VooTUKKHbU9R+jpkWUMANX7emUByEJowwTQQzDlBCaDOZWAn3KmVMrwuGBCEBKGU/R6uOUMw5Qei9Qo5lBBSqqJxSce5SEYlDADWFaL0EIcoPSDGWHzKmVXHqcdJtHSLtBkYZyhmFB6L0EIcoPTKGZWVM0UIaccSgm1x7VJSUNAyhlhjDLLPUM3Bi+sBhQpDOIMwhASkpKcSkoYQeLRt6DOUH/AF/6yhm+p9yplZWCcepxOFSU4lDKFiFnqGULBaLCgxmbQyhBgsYZ0hmGAmBnAQhyht6Qhyth6KEKEOUHosoXDp//xAAjEQACAgIDAQEAAwEBAAAAAAABEAARIEEhMDFAUQJxgRJh/9oACAEDAQE/AGV/E/8AV/3DxAb6zltgvWJeywjBjtcsniAuxLwCMDGB+Q3Rn8BX8QJxZgE3kIcjkGPEVc2GGPEXsPZY8R+4wIwYGDvCMHUdPYYYRd8hjbHgRwDEMCKKEKPdeR6T0ljbHiM0EdPbDA4R094kcTQRezgD0DvPQek4CGHIBhFnILUC2HssI+dtDoo9h6DB0FnpCM0i9vZYlQvYnM5w1LEL2xBDBmUO49J6TB1g8S4Twzp7wCHiL2xt6CqUJxKlII3WNiWLMvvMGByPWeoeIsjx7YY8Re2FfBZeyx4j4x7hQnDrqsIQsoYFn4TB4iz6HtgYl0x4j49jIFHT2wjiekyuo/KL/EdPb2XoS+IXsPZYRe2JQhAZnM5/YLnM5glq5Yl/MfjGB065CrDSMozmD1XL9lwweIvbCLrIZcShKY+A94RgRyHs4zOntjaLpcwXZnKHmFhBDM4BjACusw/Pt7LGJeyiyXsZBHGgqn+lczlXgP76j0nMQ5jxHxnpHiPjrkPZesCZvE5A9RxofkIEoSpUo/vYflOQY8Reww9I6wqECB8rc5QP/hYKPWch1HvLL31nUuWJYsS0No+PYY6wiuMwuVauWMwxgVfx7yHi0YEdPZlCUPyAIuuQ/wBRPEHisPZY8RgRYYRy4lDLmcznA9hy3LljAMI+PYeyx4i9hhF7EqUMqK/w4DE5BhGDMwZBHp3jWRXM5sSihuXLl8CXDp7Y8Re2MSjgJx85gyCLOW2GPEWQtQe4nHj8lCzKlQeIvcuWICJY+cqh0mDEs9gYPEsQs+hGD1hHwvYez/aJg8ReywiB+ShKErljKx1FmDoHQWcgwj5NIqhNjGoPEfFRnNq4DLEsPYyHiOoFtjooShlzDcHWEezZY2x4ieGXvIeI6e2EVQlchVAiWTLViywj3jGhKErAI94Y8RtkvcuWINqxB4vx7LHiL2wi9jCh+ShABKw5e5Y+MeIsvYeywwjB4i9jIIow+iFD0seBHWQ8Rewwx4EdPYYY6Rj/AP/EADYQAAECBAMGBgEEAgMBAQEAAAEAAgMREiAhMVEQIjJBYXEEEzBCUoEzFENiciNAgpHBobFT/9oACAEBAAE/AvQOyttUueySlskpbMVjZNVKaBzU7Dkm5C13LvdztdwlC33/AFczK13Lvc3N3e1+Vw4nWnZJSCkqVLFS6qRWK3k6dJQJ0VXQqsKoKoaoEVm1/DcMza/K4Zm1yFoztKFvO0oekbZKQVIVKp6qR1RBQmsfRKKhmuMemwmSdEe7gUOuoB3qBSUlLYbZo5hTU1PaMza/hN3v+rofCLXZt73N93e13/tzeJ/e03Dida/htkEBiVSFSpdVI6p09VvarfU3aKfRVdEDmqlUNVMa7H8rm87XcrhabhmbXIekf9Y5qKZMK8GMCdkUkmkJrQ0IYxdj8kzhG0XNytdldz2yUlJAKSxWKxT8lipqpVKanvlTsKbwi12bbmZHva7297m+7va65ubu9r8h3ubz72v9ve5uySkNFSEWhSUlI6rHVYoTWKqPxVXRTTjiFMKYU9rbXXC0oWj0x/oc1EbU0hQW0slsdMRpqZdkmtlcLShkojy1OiRNVBcXNx2Oyu53N597Xcu9w4nKQUlJSRnIoAyCxWKmVzRdvBVKoKoKYU1D4bXcTO90PI9za/290LWc+9rvb3uZa7NtzOG052lNytOeySkFSpKlUnUqR1W8t5Gqax0VXRVdCqgqggVOw53D0j/o87JKS57WuntFpQyRaCozNzBQRJg2G7na4yC810sFDdU2dh5XDN3e153SgRrb+59bJKkKkKkJg3QpdVI6rFbyM5tUzoquirCqCmEyUrX8TLofDa7ibczhtPELTkU3IW+605IZW+60oW87SgFIKkKSlt3lvKbtFM6IKpVKoKanjabh6ZzWKxWKmVMqeKmpqTZqewWuyQytPK7na7IpgrPRDCw8Tbm+7va9sR1WOCeygZqAXGHM2fufVpyKZwi33jtbJNAkFSFSpdVLqiDUMVit/oplTOiq6KHg0KoKoKew8be1pyKZwi33WuyKGVvuNpyQt52lC3naULedpskpKSkpKXVY7cVV0VSmgVP0ufoSUlJSQG0zToxBkvMmNk1NTU1op2jiNrsimw38imz52Hjbcz/21+SjMNc+SYQWiVn7ju1ruE9k3IW/ufWyLGDMBi5eHiRHPcHctjsimcItPH9WuyKbwjZJUhUhS3vpUqXVY6reT6qSmzlsmq+hVQUxUVUFMKex/ChaOJ1rsrhmbXIekbudpQ9I3yUvRGdwuFkRolkmA1Xc9klJS2AGZWKdEpX6gaIRJonBA4KamFPZ7/q6Hw2xMvtRHufugZqG2loFg43fVr+A3fuHso5eGbibMYlhJXhHcU8ydj+B3ZDK39w9rX8JQ2xnUtwzKpj5zXmRWuxChxA8YWP4TcMypBUjRUNVITmqXVY6reW8pu0QzOCq6FV9Cqgqm6pzgZY3N52uuFp9M/7guFpQsKyfK73XDnsdCa4glPENoyXhwZkp2W2SkpKW8pKXVSOqxWKbOSmdFUdFUqwnkGnuhJTsbxP72xOE3Djdsfwu7LwrN2Z2ROA3DjdbE4TZG42IObqsC5ya1oyFj8vu5vPva7lc20gYKQVIVAVPUqR1TQVvLeUzopu+KcTMYKaqCqCqGqmgRabhaf8AQPqC4WlCx9XJNaahO73XM/8AdsZk8VClSnXDiNpyTeEbKm6oOB2OzZ3UlSqVJSTRxd1it5TfopnRPOGXNTVQVQVQ1UwmccTvbF4fsXN4nWxMh3FkSFWc1EhthtEjjNQcQe9sT297mZWu4m3NytPELhac7JBSCDQqAqOpVJ+RUnfJSOq3lv6BTdoqj8VUg5TCmFNTRuHpH0ym2lC11x4hcOI3My2viiRUASancrhxOtdkU3hGzyWjmv3G067HccO5nPva/l/YbZL9O7Gp8l4Z1RcNEwcfdSVPUqk6reT54d1vKZ0VR0VSqCaeLuqhqphT2P8Ab3sMWXtKax73VOUPL7tfxMtKZlb7hacim5W++05IW+60oW87ShskqQqQqVJSOqk7VbyxQUypqoKanafTKGyW0rFYrFVFTRU1NTU9nO4Zm5uW3y2znsd7e9zc3d7X8J7IbI88FDa2UxsP5G/d0Ph+za/Nn9rI8y5rZyaobGsEgoeTv7G1+be9zMvtSCpboqQqVFpbKZ5oRGfNY6reWKm7RM4clV0VYVYVbdU7jZa7IpvCLfda7hKGVo4zsJ2uyQt9xtKFvO0oW87TfJSUlLqpHVYrFY+gU3K03GySknh5dJqhl1dJKkpHVby3k2eKxU1NVIkJuQ2zU0cxczn3ticB2uIAxXh57+k8Nn7g7XQ+AWu4mWEA5qA6dY0KhcNr+OH93Q+AWxGh5aCozYbGyA3ioAIhie0pnCNrorh4ny5YSUgpb/0qQqAqOpVP8inTkcUAZZrf6Le0U3fFVH4qe8VUqgqhqphP4ULRm61+SFozNrrudpQ9Iof6pQytNxuJAJXh96I+J9C1trskBsjuoZNN8O5w/wAjjjyXhp+e9jXboUsdmKxWKmmnDJVKoKtuqmFEO5t8pzjicEAAJbP3P+NpUPgb2tPGz72lwCjRPY3MqDDoaoXA20/kb2NpyTOAW/ufSiMlFrOSEiMNr+E9k3hG2htVUsdkKMIkV+wkDM7YnDc3N2ySkFSNE8Zd1SFT1Kp/kVJ3yW9qm1LeU3aKo/FVdCnHJVBeYzVTGqmNjbXcrhabhaf9YoZWm7nc+GXzxUJxhkQ3fVrcrXZbfEsc5op5FOf4mR3AMF4Bn+Mu5kr3XNy2yUlElL7UlJSUjqneIhD9wJkVromB5LFTOin0VXRE4FNIkFNTG33jtteyoKHBDMcyjkVD4G9rf3v+NruEpvCLf3D2Ty0w3HlJeG/ENsTgKFhExJQ4bWvMtniGRIr6RkmiTQNkTId7mc+9rs23MytOY2SCpGioboixqa0KXVSOqk7Vb/RGpY6KZ0VXQqsKsIOCmFMbTmLhabSh/oG4oW87go+MSGBnOwpuQtflZ4l1MF//AEvDtpgsHRe/6uZwix7pDKaPh4jt58UzJy0XhXucx0+TpWfovDz4VAa0x4rhk3AWv4T2QyGykKkKlS3/AKVKI6qLF8sYmZ0Q8XFnjCkNU6qk9k2YAw5KfRVdFUFNe+fRTFj+AoWym6J2R8xwEOSaJCW2LwXMzf3tdm3vczhtPG205FMytPHack2053AKkaKhuioCp7qWKkdVjqt5bymdED0VXRVhVBVDVE42lD/QOyampqd/O4N5zTYIDy7nY7JDIWus8bwsGr0MAF7jack3hFviYvltnz5LwsMw4QBzOJ2xvOw8v7UWNHhQySPteGjhrZUOM7YnA679x3bbCiw2xYlW++eCZDiRIgiRcAOFqfwlOcGtmV+ph9bBxuVIVIVKp6p43c1I6reW8pu0UzomnFyq6KtqqGqqGqiYgd7oeR7m08bbTkUzhFvv+rXcJTcrfda7JC33WnJC3naUNslJSxVIVKpUjqjPVYre6KZ0U+iq6KaqCmFMegbpKSkpKW3FYrFTKmmlVKpVBVo5IWu5d7I0ERZT5IYCSGZtdkUMhZFqpwXlRi9r+uDSm+Ixk9hFniofmQXBeF/Hl0ticNw43/Ww4pzITTOCd9hxTXVNDhzCicB2R96LDhjubG8T+9rsvuw+IJMoTKuqhxiX0PbJyZ7u+3zIdVMxNUjRRRKUhjNNi/5BDe0gnJUKnqpHVYplUlv9FN2iqOiq6FF2+Oyraqm6qoa7HcJTchaOM2xOFC0cRtdkhb7ja7JC3naULefqyCpGnoG7ncLSm5bZIMARCkpKXVSOqxRngsVjop9FV0VSBzUaLRDJULCG0dFPY/hKGVrvyN+0QDazn3Nr8h3FzeJ/fZ4ou/Txac6VAdBh+Dw0x6leFaR4eHNRMh3GyBvxoz/oWM93e13t77fE1llLRmobKGgLj8bMZMYmZIkNBJyW/wCKydTD/wD1QYbfOMsm7Ir2spLlBa+LG85+XsFhyTOEW+/62SCpGioboixoCknxIbOKLJMiteZNfNb2q3ui3qjkpu+KqPxVf8SvMGhTnAhVN1VTdVPaMza64Zm1yHpFD0jaUP8AXHO0oZWuu5i4c0+EHls8hyUlSFSE4YKjqqTqt7Vby3kaqvpTKmpqoKoJ0YMbIYuJwChBwE3OmTY/2f2ub7u+3yIUwaBhsf7f7bIcMQxIWMyPc2u4mWRmxyTQcCvDRGSolS5QuALxbHPhSbqneIishYQqAAvCtIhAnN2Ox7GvcA4clCnC8UYU8CMLH8J7JuQtHG61+WyND8O0F7mTKgQi0TOZ2t597XclgqW6KhuioaqepQb1UnfJb+q3+im5OLtFM6Kv+JVYVbdVW3VBzZ5qdjkLRaULR6Y9M5+oLTkhltitfhSmxOTk45d7i4Ao+IHJMdU2dgtfld7/AKugw2hs5YlSCkFSFT1Tm4tx5qR1W9qt5b+im7RMLscOaq/iVUq2qoJ5FTO6nsjxvLGGLjkEJyE89kPhtPG37tfDYd4jEJnCO2zxMJ0VgaNUBIAabCd/6UCcXxL43tAk2yJwG5ubu9r+XdPDzkZJkPz476XmTPtDLbQYrjMuDR/9UGbIz4fLMWNDvERCXEy5AI/44rGQ3nqLW2nO2SAGioboqGqjqVR/Iog6qTtVv9FN+gU3fFTOiCqCqCqGqmihaLTn/o87udwtdkhY5gcjCeMiqozV50XRebFXmRVVFK8t7imeHHNASsJIbMBCO3mJIPaee1/Lvd7z2TntbmmPa/KxnCLTxNuZw2SRG81UjROpaCVDgkuMSJnyGgVPUqR1TJ0hby3lN2iqOinvg9FUFW1TCmE7hPZDIWyBc6alZ4p5a1n9wLmc+9rs27IBEJ3lUy62M4Zrw/8AkixIvLIWfpZP3YpaF4RgMV7+QwFhKblbztKFpzuGwkAYr9S2eEN3dCR5IgKkKXVfak7VbyxWKmdFV0VSqUwp7T6nNSWKxWOzFTU1NTU002uyuOY2SUtvO5uSLGnkj4ZvIry47eEqvxI5Ix34VMQ8QxVt1U0XAc06OwI+IMzJBkSK6ahw6NruE9k3hHZecxB7XZHaeMdrmcI2ucG5lMiteZBH8jextORTeEdrfee22SpGieBSVSFT1KkfkpO1W/qhVUVN+iqd8VX/ABK8wc0+J50ZkvxsKqCqbqpjazK08QtORVZjHyyaB/8Aqa0NAAGFkd1LHnovDMohNHPnY5C33WuyQsJknsLySSVAnQNpMhNP/WROHdaoLXg4vJ2RhNq81tMhmm5I7HwYZxKhsk/dy9KQVIVKkpLHVY6re9Dn6gCkpKSkiFIrFYrFTK9ympqamppubrSm8IteJ090YLDyR8NoV+mfqv0z/kh4UcymQmAnC1/C7tsLG6I+HGbTIqcZueK8882Lz96cuS/Uj4r9Q3Qrz2Lzmap0ZkihHaAMEfEdF5kQoQXuzTIQYv3P+OxsZjlMbH8DuyGQtHG62JwouaMymkGxnu72OY12YRaBQAMJqSpGiobovLaqQmtwGKkdVJ2q3+i3+i3q/pVO+Kq/iVWNCq2pzmkZp0KFEGIUOGxmRP8A3Y5gfUDtiRgwtHNx2P4UMrRxG12V0VxJobmUxtLQLIpkwqBOU9g/yElzj9JrGsjSCC57IpigZqEN3YUPSPqDO4WlC03c9mG2SAzUlJSUkUFisVM6KZ0ROIwVXRVBVBTCmEz3d7YnAbZBeW3zDhyVDNF5bNF5LNF5LE6C0NJQgs0XlsHJSG39x3YbDCaeS8gjJyJjNT426QWoRWHmpg2DN3faXtHNOj6BOfFchBcTimNpErGc+9p422u4Sm5C33m12SkFSNFSFQOqp6lAYnFSd8lFjeXoXcgoUOLMxH4vP/xTifFOcZZIP/iV5nQrzGqtmqqbqEMza62I2IRuukmvdBcaxP8Akmua4YGyMJskoYkNj4D5kwzmoMAtxcZnZz2PY4uEtpQ2GIA6W0Wn1BcLShacxtc54OAwTYgKdGM90JkzminMDcjioZJbjtFrsjdz2yUlSNE0KkKSl1Ujqn5fa3lvKZ0VTvip9EDicFNVBVBTUThNw43/AFbFG7kvIYvJdyKP6gaqUfqpR+qb5+PdUx+q8uIV5DtU2E0J2bO9phmZM0wxJLzdQmva7LaeP6tfwFC0cTtkwE2I1xw2P5d7m7BDYHVUieu1/JAbZItGiDQqGqlU9SpO+SIOGK3lvKbviqj8VV0KmOYTBCblgq26hVDXY9C3nadvltqnsiF9UgmZKYsOfqDncLTdz2lPxfgmMACGZ2Fpmmna3K1+VpMkHAu+k6JLJM8wmZy2RYhbkoT3OGKZw2v5d7m5v77ZLBPG6qQqVT1KkdVI6ps5u7rFYqZ0VR+KecBhzVXQqoKtqqGuxmR7m13Ez7tORUPgapIwgV/lb1TYoOeCB3z2ticNwiNE+6dH0QD3qHBox2Ozb3uacFOw5i5tpzuGyQVLdFQ3RFgVA1KpPyKk75Lf1W/0W8qnfFVfxKr6FVBFwUwpiwIM3pz/ANAKanYLTdzsMMSQEghz21b+GwpuVruXe5+DzSmQ9dr2VJplgUzhFrs297mPFbm85ouAU4jstjg3ND/25vu/ta/NndAjbSNFSExopVPdUnUqR+Sk/VGrzG9lN+gVTviqv4lVjqnPbSeya4Box5KoaqexzGleWanUuU47eq88c0IrNVW3UKI9uGPNec3qvP8A4rzHlTileVEOahwJjEoQ2jlYeIWuyKbDmF5ehVb25hCK1VAo8QtOSbaeK0oIvaOabEa7Lac7haVJUjRUhSUuql1WKxU36BTdopnRVdCqgq26qput5Q2SUlJEIbcVijNYqamqlNTxU1OxvPvscypNYBsOSbkLTy73Bu+42FwCJqcm5C08Tbjg4O6lBpcgJbMat5EcHe5mX2bXcbEMIx6pzw1MfXy2OcGiahxGyAt/c+rYnAdkhoqG6Ly2qgJrcXd1Lqiya8nqvId0RgmYXly5ISHsKqboVW1Vt1UMikKYs/c+rXcJTchtLG6LytCpxGuXnarzWrzGaqoapxwQtmJ5qtuoVbPkEYrNUY45BGM48l/kchBKbDDdpzuFpz9eV5TbSh6fNSUgpKlSTWqSx1WK3kZoTU1NTU0TiFUNVMWNzd3sLQUWhrShaeMdrqSZIbYq/wD53M4RafyN7FRcwmsqzQEtkWXlumgKgAAhkLBxu+rYnD93M597XcTV5zdEHg7TkU0YBUN0VAVA6qn+RVO8cVJ2q3+i3lN3xTiZZIHoqx1VbdVW3UKYXuKpaeS8lmi8hupXkH5Iw4g5qUbqpR+q/wA/VSjfyXlxUILic1+ndqF+ndqF+n6oQWosaOSFvO0oekf9EoZWm7ncM7m5Wuu5qSkFSFSqU0Z91LqsdVit5OnJb2imdFV0Kq6FVBTFf0phTCmNhyTOBvayhH8jOxuZwN7WvMon/FUOdimkEbYv43dlC3TTa3if3tf7e90PhUUvDZt+0IjaZpz3OTIcjMo8f0nBg5JjSXT2v4ShaOJ1rsrJKkaINEyqAqepVJ+RUj8kZ6oV9FvaKbviquhVXQoETVbdVUNdrrudpu52n/RKGVpu53DnaU3K13Lvd7vq5mVr8vsXe89lJSCpGipCcAGnsmtwHZS6qR1W9qsUZ+YOym7RTd8VV/EqvoUX4FNIDW9lW3VVDVTGuwgGIe1sb8ZTOOdrPf8A2tdmzvdD4Gp7gAg3FNaBs/cPZRGk5KG/2nbE4ULW5u72v5d7m87SDCige0p0Vre6hOiOOOWyI2NVNpQfFbxhMx2SCoboqGotCp6lSPyW9qt/ot/QLHRVdCquhVYVbdUXDVAj0j/olC03c7m2uyQtOYuHEbofCLXcu9w4nWxOB3a79w9rYmDHdkMtkhoqG6KhuiDRW76VKl1KkfkpO1URriB3QBC3tFM/FVdFUFDdge5VTdVMbXcbPu13CeyGDB2QBcVQ1S2DjcnOpTGzfPa/Id7mc+9rs23Myt8S+qQCgQwRNDY91LZr/JEzUMSFpuFpAVI0VAVA6qnqVI/JY6re1WKmdFPoieiqVYVbdVMbB6blinPpzQjtJkFNTU1NTCmp7Odwtdld7hcMzack3IWuzb3uZm/+1sTguHG/6ti8BubxP72v9ve5nCpKkaKhqpCI3h2VJ1Kk/wCS39Qv8nRPL6HYBAulkp/xVfQqsKtuqa4Td3UpnNAAbX5s73Q+G08Qublb5bZqGaXFu0iaP+M9E3K053NtNwtOySkqRoi0aKkKnuqepUnfJSdre7Y9piRZJnh2NtkpKSkpKSkpHVYrFCaxUzopqaKmphTCns931c3n3tfwlDK08Tbmc+9sTl/YXN4n97YvD9i6H7/7Wv4md7SmcDe1v7n/ABticNzRxd1SNF5bdF5bVR1KLcRvFSPyW9qFv9FN2imfimmQGCr6FeY1Vt1Uxqid/wCrXZFNyt96oaTOW0xWjmnuMQ9E3IW87Shac0LR6RQ9M7CyTqkDOyto52i0oWnY4hoxQkVIKSlipKnqVLqsdVimzW8pu0U3aKfRPJIlJTReAJqFH8yeElUNVNT3/q5nCLXe3vcz3/2tf7f7XQ8j3Np/IzsbX8DuybwjtaON31bE9v8AYXQ+H7tPGLXcJTeEWUjRUirJUNVHUqg/MqTvknVSzQqU3aKZ+Kq6FVKoVKoKY1WBXkw0WgBC3na7JC052lD0j6h2vdS8bY8SlNOMyVAJLNkR/IJtWaCivpChuJbivNFVOx0duSaZhPiNZmv1DeQQIIRMk+MZ4Jhm0KK2psuqGA2F7RmUDO5nCLXf+7PFPkKBzUBkmKQVIUhUVSFSqepUjqpHVMnSFvdFv9FN2iqdoiTUxTVfdVtVTdVUNUwgT7lTCnted6H/AGug/jbb+9/xti/jd2QtHE61/s/tdD4Rtmqiqt/6tfwlC33G1+VwzOykaKhuioCIUupUjqt7Vb/RTdosZ5KroVV3VYVTdUSJZoW87XZIW87T6hzRcGjFHxDFDDokSo7YzKooQ8PDHJASRTRU/YFFzCfGa0SaoDSXTUU4IeHJxmmikSUWqJFlyXltYxQMioxyCYyR2eZ/kpGx5k0ryq8SVUapNOAQysOSbkLXEYJzgGzTWmLEqsHG+12RQyFp/K3sbIZPnxBympJg3VS3RUt0VDVQOqI32fakdVI/JSf8lv6hGqRTKqB2U36Kp3xVR+JVXRT/AMhP8VW3VVN1Uxsi8F0P3f2NruJtpyKbkLffbE4bhm7va/K5uZtPpSRAUgqQqepVJ1KkdVjNb3RTdopn4qroUSgVU3VVDXbztPqHNYFeVD0QaBltpBO0pu7y2BOYHL9KzVBoGSc2e2hs5yUTHBNbSE9k00GeJRTGSM9jxMST4UXLkoTN61/CbYkSnuvKLiKipTiFrCaVDZSNkSMXYBeHa5oM03N3e1/A7tsd4iGDJNeHDA7CQF+ph+Z9IGezzGATqC8NjN2xnA3tb+6P62+Jc5rMFCM4bT0tb+R/1skFQ3RUNT2iQ7qlSd8lvarf6IvlKclDLpZcyqj8V5n8SvMHX/pOjMaJqttTceSmNVMbYhkx3ZDIWjjfa/l3ubz72v8Ab32PMmkqFEqbM4KY12Ntd6bvTOySpGioboqAqVLqpHVYreRmsdFUdFV0VQVYvIxUlSpKR1WKE1isVMqewFVKansOYu53MZjO12VsSYiVSngj50V2ihQgwbYTRjsbz72xeBeJiUwyBzUGG0MUhDjNp55jZE341PJRRDDiOgkoP4wojK2ymo0JjANVCh0BO4T2Uw1gJ0RLos5upavDk7zc2jI7P1Rc4thsn1UGL5j3TEiBsf4knCGPtQYrnTDm47IsjCdzwQkxg6BGO48DU2O3dDsDsiRKBNQXVVnra/297YjjGiTGXJQh/jb2UxrtjY0tQG8P6qkaKhui8poVHUp43c1S75Lf1C/UO5Bee7m1B7vimuM3bqr6FVheYzVeY3VOI3e6nazhtdm3Z4h0hLVQ4ZcntoIkUMk3K12Yuba70yh6R9T3XC07ZKSkpYqSkpKR1WOqE1it9TdopnRT6JpwVSqCmFMJ/Lupi33fVlGM9jMrYxk37CDfNc4leS8ZRMEyFSZz2PgtfmmQGh56bZVxeg2Rfxu7LxPCxuqb4aGNSgAF4gRHMpZzzUNjYEKZXhmmp7zzXiSfLHVyhsDW7PEPLWyGbk2H5cCWpC8Ud1vdNc48OCEGcSR5bHtDmma8Kdx39ja/jh/ewmQmpvfzkFEzkCSoMOhtXRNdKED0R3sScVD4Bs4op6YIcZtfl97aWNURzTgE0YKHz77ZIsGiLRMYKhuio7oiXuK82JPBb8s02qSm/wCKfHe10qEPEasIQiNKJ3gqhqiGOWAC43rIJuVpzFwtch6RQ9I+oM7Shabudw52lDLbJSTuSpCpCkqVLqpbxUjqt7Vby3lN2iZOQwVR+Kq6FV9Cqwo8SpwYNcUyhokqm6qYU9jOOJ3ti8BT4YfmgJc57XsD5TyBTOKJ3TmhwkUIUve5ASRYHOBPJRcm/wBhta2RcdUTIJz4kTACSgCUP7Np/I3sdjhMEL9O/KrBMh4p/A7snjdaEyAM57CZAlQRuzKbxPtf7e+2K2pslC3XSOyHw2+8dtjjITQBeUGgI5FNy2YKI6eACgtLQvdskEYc0IYCLepQCk7Vb+oW/wBFU7RFxnkq+hVYVbdVU3VTGqFpuFp9M+oM7ShabvdczK12Vx4m3Nzda7IpvCLfKlFDp89lI0VI0VLdFSEwDe/sqVT1KpPyKkdU8GWJ5hb2qlE1C3+i3+i3k2e9hzUzoqj8Sqv4lVdCnuxZ/ZVtVbdVU3UKY1WCg/jbb+7/AMbGNkonAVTNDYRMEJokJJubv7Wu4md9tbPkE51TxJclD4Rb+59bI+QChjd2P4Sm5bHPm6SY1oGz3WuyQt91khoqRoqW6KgdVR/IqTvkt/Vbym7QKZ+Kq/iVV0KrCa4KpuqntNpuOfqDnaUPTGZubla/K73i5nPvbE4HdkMha78jPu6Fk7+xtie3+wuh5HubD2TuNn3skqRoFQ3RFjZEyTGClp6Kj+RVLvkpP+S/ydFveaT0U3aKo/EqvoV5jVFeKcNQqm6qYsh5HubTxt2mE1BgCdwnsm5C33nZEZUExwlI7InChsLWlA0RZctg4ja7JC33WuyQt52lAKSpVAVCLVI6re1W/wBFNymdFNVdFUqgqhqiRNT9IoHNTU1UFNEoem3M2lNyFruXe73fVzP/AG2LwG4/kHa6FwC1/FD73QuAWn8zf6m2JwO7JuQtHG/6teOH+ykFQ3ReW3RUBU9SmA05qT/kt/ot/QKbviiXeYMOSr6FVjqq26qtuqeRSULRxO20hSCfltMN8zIpkKRmdg4nWvyQt5m12SFvO05IW87TZJSRCpCpCpUjqsdbihtkpIhSUlSpdViuaxWKxUypoKpVBTCmicEDha7ib3uHGbmcNsTL7u/c+rof429rXfkZ93Qvxt7W/uf8bYv43XN4n/2tdxM72lQ+Bva3909rJKIBSqBoqAqepVJ+RW9qhVjit/opu0VR0K8waFRH5d15jdVU3VTGu1uZtchbztchbztOSbbztKFpz9MoWm7naU3ZLZJOVKpVKpUkRipHVb2q3lN3RTdogXTOCqOiqVfRVhF4kmOFIVQUxqpjVTTzl3u95tdwnsmcLe1p/IO1ruE9k3IWj8r+wticP2LoXu/sbXcbPu1/A7smcLe1o43/AFbEyHe5vPvZJOGSkqQvLbovLaqOpQHVSd8lvrf6Kp3xRcdFV0KrCrbqq26qYQNr0LedpQt52lC05+mU3K03c7Sm5Wvyu91zedrsim5DZIKkaKkaJwEx3VIVHVU9VSdVI6oA1vxW9qt/Vb/Rb/RPLqShXopu+Krd8FWfiVX0Kq/yTl7VV0KrCrCraojgWO7IPbqqhqpjVTGxv5In1a/2/wBhdB4P+7T+QdrYv43dkMrW8T+9r/Z3uh5Wuzbcy12Y2yVIVDdE1oVHdSOq3tVvJ1Sm/RVO+Kr6FVhVhVCamLHZIW87Tkhac/Tcm5Wm4Z2lNytdd7rm8+9r+EoZC13E25mb+9sTgNw/I7sLYnAVIKkaKluioboqAgJl/dSlzKJdqvMcmxHFPeZs7pribYXA2397/hbF4Dcz3/2tdm26Hwi13G205KHla7iFzbXcrpKQVIUthmq3BCI5A7edrskLed3/xAApEAACAQIGAgICAwEBAAAAAAAAAREgMRAhQVFhcZGhMLGB8MHh8dFA/9oACAEBAAE/IfiuBPMQQwNZrB2IeJnJLJeJE9wgSSSXj0qbqpXU+oWKl2VGn83Tf1fGX2qrwopsIIbHERI7suqdCY5D8SdiHtNBBYN2HPhnmp6IlE4vAVvif3i+KWFlN2m34y2prUWEEIgLaOAjydmFk3wJ2r4bkNCEtdMFoZYn5HRjLq1ogaEIEcMPcRwxJwZmZL2wN5BCGCST2KXBU6qTrUKn7tOdJcKv0OKXhVfWVNwWMIe0hds4CB3D3YsEnqEto/AWoJ7jsM9o1IYLjEohk5E6b+1P3CpvdVU+x8Yr1FQxU6i+KwSzgz7qMULjIGi+WmE5wTzMGXOl/IDsIIRDEudnYjdjycRPYS2wQIC8FECSSSxnqU/aq9zS+ab1M77abF2qs7cUknqKr6a5KEYWfkghscQ4CQhGe7wEY2nYco7CJNxiLmIEjdS5CqqjTSZdS7iodTX43ac6EdgVN1lA8umQjDBGDLnTZhZIkXOQnd2H3VO2q3sp+pRBAk/iwoncnuLcaCmdpgnYcBLzZml6MSM5DkOREB8vbp9h9VPLaZwsp+/TfUWN80/aFQ7MzI6bNNlJBZIIbHEQGsCnq8afZH4mQsJ6xLfjJwCyG5KJwtCodR3FSVOvz4PQgicDcCcLNdNpaLgjQNcR6e6v40yL2FnLByWVF/f44QugyOSiB2dyCGxwI4sLVCe7BfifgPbb4DsOBiccw6fmyUTj7DFTmly6WyeXVap9Kl/AetS7eqbxapdKyo6ECZCIOI4yJ3Gs7kPcjcfjgHCGa0OjIHIQwE6GFQ7fISRGBOIE08sERIkiA2j+dNwsYNJ3EoULC/tVr6p9IerYIkhUe46vu05zgjMwvFLdyo18fzwbx9A9FUv2qIGg46NCbQgrHcSQ/MQo6onYOHCasw0LA5BLuSh/MFQ8dB6FP8aXK1SvVTeLaddNnxlvyBEEENiGxCcE92T3EbhyKSdhLcdGNRBDclfAxUYIEs2RggRGcggh4DGyEJNwS2OmGI3mIE0N6afSEEnEZO6j0HVY+1P3o6qzHFZQvQpeO8elT9MKy4WX/Rk07sPTZ6Kps0sjuGeqQQ2HsnCNYjsyQguyJEyrCoq4JexLZkE/4MBTEnKjkIYXiyl6ZoCoY80llTWm0VM5hfEK9NwqGhJENiO3wMuUsvdLsWYwSzuHKMEGhELF7EPcyA8GvFvRdqJnyMouCBzECScnYmmx2/uloToQgnDvw16orUr0jJzPUd5Qru2DgtdU/Vp9MyJLF+6IRlJG8id5xPqWWMECeU4kN+g4DuMpZu4m3EF2RPHAO0zUyaKH9B2HEIotQmiSUThf3p09ipudVUSKoqVS7ioYviZc6WfzpsLFQkmS01dWjqr7sNNo3kNljIxBBDYgRI+GCeBRvwRLljh1eDCOJDaCBKJwbwPqlvV91Q8GGivIhiZzlj1T9en6QsJM6NIYxCSMSlVsWUVH1qs/5qXt5FSmT7FjC2JmQ4jiO7zgOaLK5G5H44qMA6ncc5whpubym9CodYqGKnWoviZrpdS0spcqqK/qllj7YyizLBZV6apudHq4NWgsTII938COxAgd2dhk5jG4/A4GHc1Wx9nV4XMcYm1M7eC8ImjNH9Jq9mn9VvRFPJCHKycFyTad3SazdaWfY6ftYTi7Fqn0qXZluEY2cIIRxIcVkbM4SH9mERa/A5EOEE/2MDyB5LMVqcxzIhuQGzE6HU1FSXxmv2SSSSMWU2C+M+gqWfa8YArjc3Vn2Ve6qfSZ6KGpTQ0ZbwXWzwe4/qq3voZauBBDYzXhTMmpCse6FN9pHkmXLI3IXX0k8MPyTmmdwuXe/DcxAkfEZnoYJY3+1PuCosLdL9VPrFin+FN4XKl0rWW0sKhBSCGyOA4xpJ3ObgeyHl0JI4DLozuIkJEyaC+MuRGCMJCW7BI4CQ4hAiQJG8pPxV2LeLfIhZF3xge2LF1gkI2nMUwHq1NTf7KbX9ZCxV8kXwC3lJY1YNnyOJHEOMjyNLekHrKZrCN6OqwDtdjOw4H4OXAOnnWTE1Q3iFjop19UvAWqWnpwhaxbOWUqktLKGSFRaWVFSRGEEEKSJE7snuHMEtx+J1XwWVhYxigghEMHuoI584Jb4SNwxF+ROwnsdSBCY6/ESiUQ3IPWsfbp9EWD67CSzAP36vuU++/qhbCSTpJWQyzy3S2Vz9KvuUpqyzYtbY4ETfjY+j1yCBYSUXlnEhplgcJ+skJCSBEmexBcMCdo/YzcYWch9EOTkOEciHs5LFT71P3llPuU2CoYrhYyW1Ff4pip1+O0tUuKm5VMR7CNxagZY+8IIIEUhEIhCd5MIkfAGQvj+8sZkPfFnYS2HrsZ0xBzCpdr7Ex5jByElsP2/OMrBoT6q624bGJnVwPuh2buZOqnPx0jZujL00u3j+Y+5z9DoOzFofyPVWOYuNRtJSziNZdYL5QkLC6LCMc3cRg4jhCckDIwEg2hH+RciLnRH7WcrDTwh3EfBFtjkRJr7pf2FgsGXuiDSKhl9VUMVOvx2liqqXZSxQigJgUaqHarvithDqXLA06KmzkgbuzT1Sy2QQiGxHYRFW6CU7snvgGMOfshSWxO3BSPYb9YWVwROYlb4P38JQiKYhyhhJ8g0dRd8KXmn6vT6LPVVPpQcTcJ5m+Poi5KiY3I2RYJmSmo+amFE4WHGrU5U23NLpYFCDiRxjhiCsQDuOecPwdhnKwmqHPMgcD8D3TeHMjkROMVDFpuFRZUV/jtFZU6fjGNc72KLX8WJluofk/IwV9J2Z6FDJ1JohloHSw1mun1Qky37iw4yrGCDI/kL4CB7COIgRyDsxo/BIizY1tPNyZXlcRvQhPcd2FETUpDkJW+Lx0lipkjuiJIildi14rnaFTf089StU+o6fULNNjoVF4sptiwjBrIUNt0OCdvk7eQ954CP8jsidiGJg7Ds8HPhkBNE/BsV/jtE2dcMCI2m0Jkk/BY5t7g5LlvVDZuj1qdHdD9MESS0QvWqWzdHqqlSdzJyX2Z9zxyFgtzFt3p2ZnNmnJCsqPWFSvQwbHzJtrPLgTh+xkfxmhga3EX3jCCDNwJHAcRHk7BkpbB9kTwOP5wjZ41I6t4ObDcIaBOkn4rfdpyu4PXpdtL1BITqnX0Ki+Wql0rxb8chBGCA00HAR5OzOaISM7cCnuHyC3nIcyOT40EEIaSQI4ZbkMhziSeAb7ECzWpEgcg0sh02GUKm6iRKzUpQkGxF/1gnOPpHoUbz+BuFZoSFGHfQWMOrO6/BO9k0/Sm/wBr7+DFSNNZMdZ0iO2wu3JEW3X3gkU18VGfofVOdFwxZacX0Fm2lLdGpzwgcKc2hwhix2w9aUM7PyS34ON5pYhsnYP3s5J+hG6RwFuHEOEStx/AehT6apaHLF8ZrP8AwA1U2fGMVDEQTaI4XzHZVc6IEyLBBCGuxOPVicPdk92AjeZ3YnaSE9x2EDPfkVqUZEOKENyR/GWOqU/CgkhqUKiynWtVe/vLBDcEE1ZQ35QisvifJZftODLZXRXvTfNMWYh6oFpUuexPjQ3yz7mPKhFLZn5iLwOsdYP3sk2OCoTLg3oudGRfFN34EHEjjHAHFpCy3Y1uNmzNtRNjqwlaLkfuZyBxv4T/ADRaS3FtDg+SD1x9yl8l2KhntU2VFem2or1FRZ8h3VWtV1K0tYysHyFS6KBoX2Hk2bPJkdjgwlpztwMB3RPEaFx0OA6M6vA5BITPeTUartPZcInFs04VXvhaTG1jYLTDT4YP+o5+CTLfl/VFm03sISxLp64GPE5G1uh4ttL3NxwYTqEmM8Lm8CcW849JU3/VP3rBClzyT1Y5R7S0W2N/Ol94k2xJp8HEOJ+SP9hsOfsRGz4w91IkL+Yo83Jf0m8n4wj25OZBJuTjo/8AAzLqXcVD+RYq1q103i11i5O5M4xiHkegVOf3oLWSQG7Fmvun70L4uDkUNnEcR3HYOuv8CUjENRCWgnY8n62RJa5MI7M5DlGoX+0Q3JRApLMr1mGfeFvt/dPr0mq1Cni0fdrciFFkSX4wUmlwlnMjGu1UeiKypanPbxIFR9XqKZQZk3qEhE3il5xPJZDOVtFiNi05W1wBU07b3YFiyymxRA02NUmC4Bp/aSOcs4v8Z2H+gfuZzx+DsOc4RDcZZZ0nWFQxfG7KlSdW8WKhdmhzhTjeBO/zAe6LrIlnnEJCWWLM/DMeuCzKThZ0CpXqCGWEkvi7MSOun79XubogKjjcn0CMiyWwvKHImTCkxOMjsidiw/JG2QeTHEzkOY5EP5xl6qXAieSQkSyVDmTvUPt4Tgz2hy00OM8nKhfGcmQUlrktX+vFjkza6QpV2gulgmh07C2lgqHbBA5OwliwuGQi5EqxxjT/AEQ9HP0ojchITtw8t5HkhIt4huSsS+NqRLcjdiSxZiWx1wxGoiCUSSSPmFapwQ2IbELBX0uxZL+hIliHqFGo9BDkDt3AmaSG5dkNdkyciSSJgWuWOTtCR0hTNZqC0Dx9tV6eKaYB+kyqB6zF8an1LhBA4QmyDjP2M22P0o6DM8nucHyc3yTJrUyXaJOjzE7sW+cQ5kTh97wnH12KjJ1sSRPVWog7IslRHF/5kuXZ9nRYycUMTzUtmLRYxJiRY9CySygdpnOM82hNb8qDybRDMnQUK40FhS4RKoLgYQxYwQRmQcRxkORhNuQEF+FbFUWEEEIaWBDF74XIRuwztOAbcMsWJEgfSJosZ6lKGRrAVQbBk0Gq2RauTqxWQ25iTJAadAguEbkcoTA78NkB6CwlkjYLs5/Ayn2M613NP6vhr0PZiZZ4PHYLDin6NOhyi2iEsq2LLqFfEy2IjEliwcAbNJwES18mtEc0/SjsG9ptOEIP7kw/yTn9DatYqfidmLXM7lRpKcCySwd9TASWGRi1Q67KwqHtU3OEcQUSPgVptSyFa5qYSaBqa3OeY2Qw5jJwRJSkjSVnhZUVRfEy58awsVOnuqMM7iCEQFeRDD3ZLclFxHCzwdMByBtwLmwOU5jkGU070rZdIVhRE4pxcE9s4YEZBWCkFlivBhbWJUloSaGZYlG2OxWDnGR/3bY3kQfzEKudCfUEMXLk9P3aWjoPSpXpVECocA26DjOTyJA+5uPT9B6xLGjmyNasE9BvL5L1EbANP6xajOKJ/wD2HX5KXyXYsFhkK7GVGbzQWHIqHOTVkOhiKgtUjNzG7EjVgxWUK4skSW4lIpjGkVFwsZrZc6XUtLFT7GN6gTXhjUJhs5BJTGstYVdeDNfdOUlal24QQI7HCE55a4Hdk92BR5W9H2dkfhguR5J7jN5aETkOVENxvGJr4oRoTKXljm1Q0mlgSPDtC2JLsb5i1hpMmVC/cUxAU1yyE6ulwYv4U/VEhKn2MHcMYFowsThVr7wZEk/likw5IMIIbGxDGhxEdG/JIv0I/qh2ROxC/wBhyMJltMc8SSJIaTQSWLuonmrIbMnPDJhpbiu4zonOkXxMvpOtVLsxsFc0oFxwfWwUnE5iIwZa+IgSIbQtkljTRcMGsJmObWGWO390/TojD93jCCGxfoIs3X2cY13fkX+45p+tCXej6PxJ2of+s5BLmbCOvgOcyrkuglbkf0r0tlBUesJ4Bo9DOlKY4cspkGYIcWynT3a+xUNpXGzyGWUba/kUzlLfwQhI2xI7P4c7FlNoVDwwcCODhkdCbQ/IlB+hEbHgkk55JMX+gmEP6DvGdRbiFuYSO2CFs6RYu4viY9yGCUShsalhfBalGWoiUX9sbOCwsU/UqRp7MyHMRghOR01fk9On9/irmp/OEpzNApjO4o5XJvLSMVX91NgWJh2IIWw9kPaIDIjv5YluD4JsxZOQan5OT5wnB4Dy8820FTsHCIbkl1RHpEGsUBJtaYwf9ITXFNsPYNMjRNmpMVJkSy1iMbfumSi2IBtk1fJcTDF8hWDPSpvFnxFhYX5R41itCpUjGBMxJscbA7sfMJhG8/HAP0szAgd2A4nwFuRiRMoTIjkh0BO0lsdSHJHBgQJRKG8RuGsVvdHpU31SH0KLyyYaPSp+9V+THscyxCQhmh5ClBVbj/aabXlv0T2wRSxaOGWE4DVK+n86fREkcQewOM7PJqjCfea9+hvOSD0mE5Yud3CSVpfg5xxti/kciJxbyqm/gPSwgbDiWQXEugXPgJ9BnS2nO5D/AFj/AGBPeasYuhIhLcHb0wKh1hUMVDNcIII7KuwsptLKXdYwQQJZiGFEgPLc5CW5Bdz8B42MhZEtjpggK63guQlE1NcEQRsJkqfYVdMIkssWlJcinK+fqr71UHhiuMz2CEhYZ4kpIVFNhYVsqPCVJvR9ipaZ86E1ufYOQWvCBfAJtaDZdTZRz+Twqa9tc2fU7CdqP3MnQ2LhO0TtYBPsU2qFDB3CMbRtA9I78I9PIWx5EbTKJdH+WNmTEqTbRK8sQZBIVVUWVNaipXx2lqm0VLsqvUssU2CogjL0Q2OI4CBDd4RIQXc/EleUhPWhzSRR/oO4vZ/bOc5jmJQ0N0egxZdLclhSTlVH4T+YwFCMcyYvAztP0n1TpcRU2OWxa0n4DSu/wNIVth6HW0LIz2DbEPMkmLBo6y1U/Qp+4WEENh7YZyFc/WT9DwCH+gzaWcgnY8n7GTKP9Ak1/BwhbIlb4PbsXxbRfGKhi+O0tf8Ag2fdTYyx1T9QVKqvtdNj9M6ks/giD0OJHCw2jnkxDnOwnvwUbB+JIzKU/s4fk/YySD9SFTQ7Cyew4ZwjgEokZ2UUUPH4fsRv81OZtyptv1lS3k+j0BgW5NHHfokc9AmYIeN+pf0tEKn7qGpRIjNyEmWYdX6sGrHtJk6Y3GhJBNojgnEcryL/AFHKI2/GHP8AYE5CSL9iO3wcMcWSG6RNCvUVDF8dpYqdHxmau6bnRYqfdFT9Gl1L69TTwtfVLQRU/R+6Xl8hITohbD2g2acNEYsI7vzhHpsfrRnBOUW5QT/oc47CLR+BHY4WwOZE1s8N5D/gDNH5OISLC56I3Izu42m6Cps5NT7AviNS4J/ESWEwMybCBVN6FQ8Cxg2BxjjOTyJ/3keoSmOonasPMc4S6p+DlEzQcyG8vkWCghIa+Ce2BiJzENyBInSdYVLBU+7TeMquPja4pZ2W7X3V9dT9f7qzt4r1TcvGmBVH8jTY4xwHd5ExS7jYJ6XqRG8+h7DnCxuQE6RR1H6Ed/jDXfwHdiwY2hVNl0+uxUO1U0ZVcya1FghIYrZnmM6VCodRs0Kh4oIIEzIwR2OAbMII7+RIuZ4P1r4DsOjWTIF6kYO5BAgRwLMzuyW+AjeMMJ2YJPsdR5IYXMQJRpE/FGjrLHVP2qrOTumznUXHD6pzIt/vq1OdObvP1S2T6PUU6+E+6bq6wggggVo1nGG3SJTlSvyfrY/wgt94IJJ8DyON/wAhqUyOvhOX0yXQcYQ1zCoeOot0u7oaBsywkvYWIQWKZ0rHVsUnUdxf+K5UFpi3mNyGsixdS0sVEFy7IJ4EQmkcRERd3hJbiDfIWN9T8MRZ7iOnFxYwNZC8zIOEQ3IRXOr71OZ1f3afpVed93xYeGcjL0via1N6jPLdqfRdPoHqYwtiXQZ5QOAh/fgv7UZ2fQiWhwD9zJFDZ+DMPM5zjDgiRs0fkyOiynXTcLaGWRUWDE0O4qa+O5CGQ9aiwze4hyzYgzhHuEbugzoblXJ0mHNwidAQloQy4nPMgnSEJLHVLGHc/EAsKwytKFs4dLqFq6YQty/oSpxmziRwITlRZI4xpGvkUf8Aoc0hKJmaD5hPUH/twOelq36OrIbeBzYThEEnWORENycIUb/wq+w/NLs4f26XMkJU+7TelJ2Z6eLgcBmWQqVkSpVL9olRB7RCJdBwThExqJw/Wjq8Ehx/JMjEijt4HKcQcsEIvQxor4bJNSvjsEwC6ymcUTMyWwqhISHhMe5uxGRaa6xLSWSKOUUNJZGJSg+0nkhZ2pcHvYAhMrTBu0Rkr4TwTq4C3Ys6GzJ7ljqjK3R6VKzm9RiayQ5MJQox+pS0O4Z6yogX8OFBBmzNjiCAqEq7bOJhHyeRIs/I196jknKOB4wjqzKxHkocHyfpeAdhC8sXvAcU5FheW7X2Slm3S0zps356fWF8aoyNXQqPsQqb4TRY7FT7FVUq7wgghsRLHEsP9jxJRqYXB84aRTKzEHEJbIStxioSML42yGRmNmkVwkYMcgLBcmTmsxm0WiiGKaZdCmEEIZqFhHqBW6QykybTzQveZEocGaMJcMrO+JGqe4qQqHZVdYzBS8+hu5WqRa1hKzrRmnJ2qB4ZyFYzSb5RNJlgsluBom5jJIhE05TG0lLsN5YKbiuRqvbHkmz1GDxfhb7p3Tc+EdVKfBhhxIbLoN2hGs7CO7HpORt+DuWujrNs7iDxOWX5OeS1X+BbfmJCbvA3OskJ+g5FjIB6mLYmZ+CBUW81FT96uMQXSNWQn2R4auyaNAqVToFSr0QIJYOAcAe2JeSe45pG8/AYThHsO74GRSOCe7wHYSTwTtOAlsN5GQQIkdyUMvyEkkLFXvil2+OSBymgilETnWN4SmcLe2m5y0vY68PVC64TnciT5NgTlvIR6ziRbzmLByLss9CGm2w67dWHhvITEZJC1lJ0juAZJhB9DQQUfkbhSxlmeQzhk10wnKjQFTN5E+iVjTSbdNMIuEy4JO//ABpbNd/40ZLNuEQBcMlHJLDTEosYdiRcUWEug4grJR+SC/6ELZiCzjj/AMhtss2XyRJ+5Kp5sj/WR3nwcUzbB15twk3JJROH3OvNSlxdGT1lx5V8VwXxNAqVd/FMV6ixitipM10QWCWRBAgQGuLlucggkk88M7FiA3EC5HR4XMcw8qD0EmpNGWehDKbTws9umJfd5NPb02RbO4CZEng+mSfBPcuCFkowz+C3lE8zEvogJyN2IISSRrVaG4GLQWY/c/5iiFoJiplm8EG/R0foVmMSM4eYy9LNLkD2MFAJnU1lz9MFMbRGbYM7fywnWWcmhDraTbrETzMPxm9D0VTa6YNShZyEiwt7j0qYl+7iRA1G7oxNMMJDfyFLP85kE7f4NT6kaWOB5FlcHCnKRbdthrlDONA5m0R9JaFTlQy2m5VFcXwzFeoviZd+RL4rPuptYmQgjBDYRT3ODE9n5J7xM86yWCjYPxJ4j2A22bkGomUP6Dv8Gh9eQaAfZxDkRDclDS3ivWKSVsH9a8sXpSlWaHpm/bGItcRuekjwPdojpSJciRPNNgkpJpO6EkrKDkQOa0pFGVai1L9Jpz8GByYjIFMqMsW/CyENIShHEiH7xntJeqdDG2MxFC56YWOW2Kh+xglwm7sW9GXoLeDhm4E+4M0j+pBxInWUG/ECf2Douxf4T9CJ2CC/vgLIS5PGG4o4HkLabkKh4FTVDFTehfEy5UtqKlXdUsuduloYVP3hU3XVLR1HqrGMM7Tl3BBJoOEcQ4xp9xDRvzig55G5v/QgP8I7iST1JDTZJm5+94xI/wBAl5Lyk8jIucM/2hPshOYydFLdv7zoZOT1xokMSMOZCHHmtT7j6wY0X8guLsO7o9Ol4D9pkCYP4sJjdMjKmfOGum+LlQ0MQQQcQcdgic/kyWnnOYRs+Bueh/qH7mTCP9A4bmoYtgQ3xfNCpJkk0Swn4GX/ABh/GmWqfsVT9D+NNHcPUpsalxv99OjSQXX7TRJLKT2Ix9vCIIbInuHBF9ATGMxLTUUH/Kcgz/8AkexlKxTFH7XhEP6zO18MZi2b+w4hJqiScLj9ppj+B4tMt6MvePWpXpWFpurEZkNYXRciC4pDoblq25sp1U3KjCwggTLAjsQ2wYLV+TMuxbk/eMDhQ4Am2OwjycxxjXEJN8JJJrZ3bDHAiIgZQTQ3mqWexTYehS/o+SsfaoKnw3qu95+6bfn6VXkS/LpzcNI0P5iQrhU/UeqZocCbRDbdcMlWnyfvYskRP0I7Bv8AsH7mS7SeRcfhhOCMLlZodQsyScffWLbdCVY+9CwzOw2bgYe5T9xZSqa5Wqi4W0sKiwSIIIENhMnBhd35OYRuVlywjBARAlw9iYjcQ454k7TgG+w8SQ2xqO5nBUM9CUSSTXXoqllqmyuAqZzfu9Ls6qzcCal2fQkUr9vzVFTe/qFS+Ry+qWhPo9BT9EgggavQSfJXRLowH/owaF/qZkEvnkN7RFv/ACZqyvA0f8RMRTsIVnETrIcTH2adPdRXU2VNdN4spYVFn/iC2m0Xx2rsggQiAiSYkIH5HZktxsMzlkF+BwjhEzhgnwY4ajiZJCEuxznEOIQ3NLtE0STio/CqX849JT7Ol4byMnUqb7j+6c8d/sqsf4rHhnIWOpTn/E9U+hFhGKhAkQMZ/cSnEhvuptL2QX/Qe5zXwHZE7R2vyOQVvLfnxhuATK6M5902rstp1CosqMKi2k8SSSSa9j46/wDDBoXFLLu+EEEEF1CeIhbHEsdrJvguwluOSc87xRAxs+DuJDO8RA6JKFj9zOR5xJSedjJzcgHb4O/wJmog09ZFWWxwhPsg1RySfocUvZvUWHu2902HP7FSWRKf2+KXzTcqlpny6fvCodiyoJEEDiQ9oMENH5HMI/xO6JomBI0C1sC7DlFOzFuInFqllUXvijrsLFN67pZcptLNNq7VS+tLqnpnrKn2WL4l9EVqgRhGCo+AbdBxxGd3PyLlN/4HBl5BJXi3S4RhTslPrUzm6fYqPYVX3KV84qHrVvsCFjc6LNXVDLapYwQhJNjiwHDV+SXux4XYtQSoyGuiqLxbS7qv/8QAKRABAAIABQUBAAEFAQEAAAAAAQARECExQVEgYXGBkaGxMMHR4fDxQP/aAAgBAQABPxD+hnqIVAJBoErxOxEQ6O8DLcpVvE5RoQ15k6Ttwe5KEaIVp3jvQPMpgfzZlDs6cwHCHQz+PDoVeRMpdjpVjwulYwLun7hcvExhcvB23j8DC4wY7ZyH1g9KsOBlY1Dnga0nYR4E7cV2PcKWGQhsqAShdaSjc9zNZIG28g0g3UPU5wemZVxk3SWqCiHMSnMuXLTyRlMLwL3jvyQZeO3yJoMLxV+bp0vMGTBwZm8sDoUaOkbUOh1JyOhlSSsKh0hylEpGTwEU5mXxwI9y5pENyfyUmv1ATaf+5/QY/pARYRzJUfGCBZa3s6YvwjCXMpUYVeVKlSsOtIaOW+MHc4TOTCAvDfCJx4x3s2gzvSnMDzERlvZBg41NNGBja9o/r05RibXclxwIsvufhF00bdBc8m/BuGJhmTsPmBxO15CEHozL/wABgSpUrXyh+4KlEW2IvVvUyYKEIvFGixex+5aKCKuAmD0X1LGzgdH0yn+xLToQ8+E57JfswgbRIkWGnAvCyMzq7vpdJ5jSdDFb94YGDyPM0mLg8wIOhZHmaDodILUOjbNPQMoYRxZGUr+gzQQm3RRarAUal/ILIvdlh0sLKumomztxZsIx0zQ8uAmKpQ0lSpUSEr8ys7ROxKxFS5zsWNFhU2pB3EtGapKmcVaqUNRmbWEWbxzuErzKSkZ62ZReEvoF9tX5DFwupz/Lg4JEOEkDG8HZ7HzoYzV1kOI4ItOPwly8RZHP8+F4XGZl5XTm538YYVgQhLPKlJbs+RfX4R4cyyasE0uKbUr0fyB7X1PIiA1Ur5xCAtzg2yQKA0rlK7g2hgm8pMhmltgy5eDyYMiBi6QNr0nmO80HRompD+jNMHTUGnU4s0Ey7yEylrOJZEmOVFLIt5puu8Ih1gDDRDCsAjMyiyRwzTF2KJXbI1EmahuP5h0MzPwMMbjpHaMg6BkIBKlEpEQsjpSWbTzkRylWjhu9QgdqdtTlGFyyyA5SjNUWQK8yClwLoZd/mjyQnufyYLLwq9pOkQOQ/m6GJZNzLaowxWT5eEcdBycbxt3TenMXdQQhg6TsxKWrLgy4ykSGFTI4csowowDIieJ207WPDDLWELo9w2JV6fiJtc7kUaXl1pbtDn8LKdYnIvJPJ8l5nOZDfEG0SUlxX0hZRQ6HOjo0TT0OkG4P6LpHRCoVg64MA5AT+GDlKixJDUwykze2BGLFngvxwmroQtanyDWNS2XNfgh0M2+UOjsWuUhUlc5RuXoWVJ0XK39h8OlVXdHAEyN4VGVKQXwn6JKxXURjNsPInuHcIsuO3L/kQDvFnZRLVysFwOrUua/Cf+BNyhtCVu9X+sOYlHeXGZj73wjywrHK8m/YRx82T4Q6Foeijhm7TYYsAbhTJjLwzlxiuXF8+qUsdul05plYVKhsQlSiMANolRkRbbKpC0v7FcotS8K8po2vkl8Zo1D7jERrKgTX4QiLtluiRDAcwf6F1pq/pMXIYBvMk7E7ESNJeMHZZUKmd4ihzjKfKXBl4aA4ZlDsYCoLIRaBi4dJ8h07nlBnSBkKAoi4XFY9z4QxvDPbnpKS1DxduVQM94k10Fi5DoG+y/uCgunXF03CgosKsKlauE/glEqVEwAtEpozt9jqoN8PcW7MDamO3lU7QFkjEDU9w3TANVF5KaOJZw6TkZ2US5Cd4l48LFlLxsXCn5XS0rkMMWUeOGh7EYMcFfaGNy4vnNCXgy4It060ORjcY5uDLx1YMsVwc5ISpRABDASnE5RHjQ2sJ7FgiMnekddCVQnMtqXkiDeB1YJs/o2iO14gSpRKRENypWIdp2sAgcNc3Z3ICWM0cOHFFkogfKUwDe0wolZZLly/tgg9FfblCwg1FQEpiz41hg4M1fK/vTr9/wCeNWohjac5Rxz9j+/03H/ioKHt6XPV/scExGS2Rg2QFvB4wdNxIUHTZh4f6wJUy4wRwzfkPyxhXUThZ2JGlWZbXvDJl94Hoo7X4lbICrIsuJ4MgGPpoHyQNyS06aBBJdpO4SyKq9WiChgS4xNbSiGFYe4QmUMDBTwJ6KioQZdN28BwcLSdDBNGAhg8po6FymrA6DkhMKlECpwIvsnbf0NMOCY6J+mONTKpoypUYYkIIDa3zgZSiUSsrECpqMu2iZTllzRRmMuq5wCazTAXiM1gXbRw7hIJScgSrWCR3CViPHAi5eCy+du/1dNzdP78WVpVUzGttflbwcBb+H50/bGgdumrk5h/qy6ItpBaHaC8xmnmDbsioSpu6ZB4BiYBa8B9V6XXnyomwGJ4WoOOYZZrmEOr5fhH6Zmp0KvQfWDIlSoiJhOnlSKf4pq0OKvtnA/TAzc8msEZQds/JQ3JnZk5mh9wJJzGbyRuD7Q7TyJKNZGBOW6izUgIhqyjGNWeeFy8FLTgRmhM3klSsVpDlisYyqwhjpOm6TXDoz//AAXpw5DHTN2KoDHS6YARlCGhDEjF+iD0MJm5cqWEWEojbJlyIltj2mdEDREO07KdsnZij1sjtWcKn/ElexlkzqKrG/8AMR5wTVkQa/KXb1KAdz5FmAPM7870BLISnAdBlXmH0Q6WqXML4BEGz81L/Jtbxg/YB9YKwMfhD+YmDouUfWDCk7bK+8oBRxVCMEzQR+QFz3WjXo0Dkf2HSs3tfOi5c8h6KRJ7BQSpRF9RAlXN4lxmYru9LOFEXNC9xrygsStvFxDSVh0cp2PuG9+iWwgGFDNfJ/wGc5IJ/klPRNiYIy4ODo+ikEECBjqJpxJownQsn9c0zV5wh0dPS6U0IYMyyEvt3DoZm7HTU1fOJQHYpJxHyYNJydSsuOkVLwpmTksqa/B/LZRNIQFap8TBdkeGef7OJ9II0UY5XNfoJkRl5Mo1TwzkX0l3Ref4tMusq2lSdlBf8kAZCO33NCkUmUuWobl+IdIL+SfCDjcTRyEEYwEmKKlTZP5EWceY9GCy8Km+n8EGDFlxVHd+cRlzMPlBohiVJm+6KjseEw6HTdo8uKsKpdoFEpO1FP8AFLz+Ka5KxTceFnAEO2XyGkTyI24X4mXd82SvVoq1+Wc8f8yJsD8hXH/tQ407hDRn0VkWT0Liy88XX29ThoZQyBASkpMhmlLg4unFkYXHDN5l/MDFmZ4HRpmj/wAZ4Kk7uonESo3I6pySHQzOhwfnQx1OIBxIENEqJKJzAaWVvwa3hnDh/nSSC15x2CVvb/g3AuUhwoOcF2aVGaFVvk2VFJNo9R5vqcBSjSW0e4iqoqBwKI8/DOWCDR+oPt8QzFXV4MocKD7fsF0ZSBkvUwZlLbS8GT1CTTg2DglbTSv41LjgSjyX/iaIEqM1HgZlv1zxWoMz9hw0hCM/Yho+2JGJfhJBwWL4TKYEuMz+sIYDEnimhhWDKYjKmWzIiHUIv/ii+pwOhwyZKcUEf8iVzvUzFkUtIWS7/wAINqDyS0u4Mm4PJASzBZ/0+iCpTeVgCecp5gprKBWDTKWoF1I9aTIMI5Z3ImDr8wCSyXLix32k6daCvDLlRtmVzgABoTP4sJeLDm8/29Lp4ZT4GDntRQKoVNcM/Zb6Q6c65L9YLFjG95/BM0Yt41bQuCdBq3mZuR/PWAwlRHfZPQsCJKlSiGla/wAsV1b1hHBTwsp0R4WCuGluecpzObMCpH5M7WPEQ6PENn2CESKfWWNT9TMpH2lOtYI0CJ1Eb7ZV1IJjQ5qOVHsg4JEYF9o4UwcLn2n4SLAx8IBBjE5g5RlUNLG4rM3aqB0PPMohiqmZxS4sJ3emeoykNmCjAiDaJ2SeeV2+kdqW4YY0T3y/9j+g80zDBcVlDlAlErKgGoCVjxR4IiBxDK1s1FwiMaslAecA2R02gZ1a54lJvOd6wddbSlLsncneJ2RDQB8RX57hheKu/Y+RxY/fSaJcqJhEmmGdhwn6HSuUyd231XpNl331BgkXlDzGBS125NVy/wBwMBiVt0fUGF4XFacq/em4tSnxlDvKZnNHMQheTxiqfhQVkRSIltk0TTcZ/wCFGiqi/wBZdtiuyeESmx9Iab2IxeQdhAADIZJCmivsOd9zn+RAtDGHvYFDSIloPUGg/wBhLv8ANCUEzERRexMsGMztAyh1hGNoG5ml0MYtAdGj5mQIMuXgX1wMYG6uPIcs0dDpHbh0LTzNPRomvpWDCutmpDXjwcciaTC8dP3hjUSOVQRfvf4mLNDNb3ypSV4lIBa2mktoyQEVADdZnixeQCG3AjedbiKpYph7ieBAZ55VZm2fbA7omVdyzZB9BLyP/igprKBLhxNDkEMGhLImvYp9gcEtUwsfCYUJ1pgxcGv/AEFQ0wIT0QcrBljSU2IFbWtApVy+9J8kfaIPRQvCho9uF45+Nf2G39k0lYljKpWHaL+CGgxg6TKvdkVESUAq9iDxkGHm0IKckBWs2IdIkeRyh9YMiVCKiSqfH5gQyzUvqKQphqEMgCeGdoeGV6TQM2+UGUGZXlgJapb2yzv+5R/jGdnPvH1DZBqzIMzU9MEamos+0/8AaiKuVV2QV0MUN40HQ0TOneBGBK3NUaYYrKBt5h0aiaejTNbDFmUmn9LWhrwkcHGssCESZ/PBxYqmcsVBfE0PTOw8r/PQz88FDxKiWZ3fqO5oKslEINqjFEOH06IT7yk7UX1MeNGVVD/YsNZXb6R5M41CWbqotGz9k9ZyjQM/4MSS3B7lBQrMjSXm0BDljx5foJYyr2v1SXlENUIbaQJwkQWXVS4cNisGi306fAj/AGDFjpv+qgoOOmEbX/LViQDbb1lAQLkg8GLp4o8R0A9ogxXuDCuVN4S6gYmwXViFsNckMM3KCEMGJNPN0TF5Th0aGG7cqypRKiIEgJFNW9RXX5xfWCBK+2IsWeGL/wB84C9DKN6Mu96SJWE6IPucn2GG98rhuD5Uof4M39GC/wCacH2gMHlTQYrFkyhh0PLNPRkUN4GCYBCv6OVT82LEZax3mjoY5iBDC8BXnNYhlYurY0hivlDRduhlspqpikHcvaZYZHc9xNvA/mD0P5TJNcuXETtAN1i8HM7xQUz93OjWDvNBu2BudFgZSpSUlOK/gghVsieJ/oUBbJ8n2Z67kXXlljSS6SiOWUO68LvpEDORfmugCXKBYXelk21Au+CVawOfxg3J5IKWMVWVUPsE2/Z2kKwvvfMhdjFwCzbPZM0ABtIQHbYtoNz/AGZA6FgXks+ESVjQfn8IQcWPM5V/cajLpdyGBgqbhTJ4YHQ7HiNHRk8LDlxSVM3YMFRwBaKCwZkCPU44ZlgPaB2KFpmQAyUOOxR3fSTkXwyk3+4PdD/wxHUPtBotyBFjOONSUly5omgwMWtD+lrQJpFm6A4cJh5wgwPMpzLIy/zB6FlLzNWUXdpb0EMaF4UNeBDoGnkwx7Ks+CaYQB6JR7ENMbh+9FULXFpgPpyN5rlPjWzEwaRZVFdBoE9WIa4CUnerPtYlRKUzOOj6JFHQzP2D/nADNoDWPEwoW3CCbrEO2jBD9/7Mx9AMi2CUGQtltgXqRERCBrIP3OKbcNn6/UOJ+4IUDRn3YHufUob0T2cLG/RAutYG5bP4SqqPtEEFj4YV3SoPVfSGENX0NwLvBi4WS1jqs/cdIy7RoDhDFdibN3qnoZm7UB0KoCH2dKX2hiMPww14osHF2/BAxqKoaEJWLASsMoCmBWGkQx4iLzCFUcL9M7D9zh+BBG6Ebk7h7ZTr8sRklf2YZaE9MJhf807X+jCUSnEpHilDkS40ik7FIFuneljgU1ly8UeZBb462ZpnZYLvhrgotwuvUlAvaoJLJeGn5EIYPRBQmdygFuuUHnI/IsAWIkuMyedDXiQuUuAsc0bTUnErYMUXpmsZmzVy/uKwTFrMy+eMvpJOuUOnR8iex1avx/MLCwInIy68hZimqYv1m8SQXykfRDuQyw2RtG81lTM+C+CB0HMtfzbhgClUALVi1j1GRjO9szYEFvJ+GUDBfzKgZ5zc/CMNc6d42cTtwSlUH7RHQZXv+EQNPyE2bQ5zm9SzmPqK9fXTO+QLKIW7VlqrHkYf7KCafSX7IZn75puBheCwW7sUOhKOrRPzHTn7aEHG5q+SaGLgUpDGpexDQdDAuR0ZYzHQ6TVQ0wcDBhUohw1jqG9T/wAjrZrPMI4sC9OwXjIMYK0qypO1GmiOMCmvaBLqBqN9qcUK9I7KB55ZkgGyB6rBr3nBrzH5CeYK+QvOenmy78kuO7mw40o7xhzUdT8qFdFr7RIDpqMoARlYazn8munPyP5r6hfaD4MG5pURqXqkFEIl1lElnN3R1BKROQ1P7F3HVmE/Y1/iMGMHnP8AAIYMZ5UfwhKgavyr+MLqaGu8V7W4OjDdHVv2HDaRsEWulIMiuF3g/wC9RMrcKjDHdajvj2dYWYul7ofEMaJRDJcP6ynEU1+UVbfnHMNbWVifbACAZbMqw94sGWtalUT/AIE816SMqxsAso1HqK9Z/wBgLTsHlx4nQuUKFl7g2nxQ0QcGWv7odBU89LoiVYNOjOTvNBDoOfzA6HQmiGLpBThp0apo6FmhxvrY/tDCsHCadDP3HTqTL4YODdV4MZeSaMKjhnLzAwqIwTvvnh/Ay2LiuohsR5PsQbZbJBygOj+SrQ/JRils5k0sRR5TOFGcjJV3h352csaJHa9XAiGXgX62U5lkuGXtfyFlzKLib5j/AADAREEdRiuCl0Au9EYbW3/POBNOe1GXFitOf5KhheBHefnApDMiTKtAZ0CG3djdIl19d7gS7Vt+qwayhPUtpbeITytllKz6j36YFdd+FyuK1uGtxYgrhUsBR1hGJvsD0uvIoaS/nRir6QAznoUcSNYUs3RmuFSoyxzJxkj0x1nxRWVGgeFKMwPaWqhzlWj9iVbvmLLqj3D+w2KEDTlBLC8Iyhz80Ulh8qCl0PNkof3Yim9eYzY4LJc1ecWUGXLixWvnp2+Zo6NEVrpeSaOjTB/SZ+uHQyr6bpNzv05fBB8UMGXpmw3IggzFqNwWWNxYYTM0f0UAsoxDKZxd8SVi25z/ACSjhWCTWnH8mBKgSiJ4IMob15ubpHiRarj/AKLAmn1lCzVU8Um5XLLykDolXrVTNNj3Wc3pjsH0ht8XJ5Yhl+M5Q8kqaVfhnYwhBprnpUC7J3CAds7t5exKRADc0aZ4XvdV/qhLwSCzrRpUCMQY6ypG06bw140qNORRWgQ76KOwowXCtk6GcGe5NK8zoXtpDQcB0LLn8fhDBiy05IDHo+N2gx/F5JdW4lwIAvMUcMju1VXmLXVo3QumNAroFx8LAbRnYyzUTRjom/3wYqukCaPtCbSpSV1pHmY9RZutzOsQ+WK2vDgensblHu9EDoXzBTc9Mp3vaUuZ9GZTZeyOaqVa/hlOtYP/AJJboPsvZGsRUUgkuLKH+YdChZQ/qTg4IYS5cWIV06Isnz0JF8oK8BhUqUrM5gu1LylCtTuRDUvaJZleIdgfk/0GafsmrKtbcQPWG2DNEoaYrJkDPea7/eJ5XJ/uAI4LNXwT9lZZ/LFFgNZUqZX7Mqfb0VKIvLPRXUMryP2VKJUeAmRDNfwjqEjNaVq1vYIyTLi94PMobJDFvXgjqybVUy7nqJ1Te4Zlj0zkkphAq3zTOVGY+oaWX0y/QwTT7Q8tP9EIHgwZcYQPAazmO8IAAaAUEDGrffHIsOi5u8pBrBeB5HnCEasS/McV5Fk71ixZ8BEFKApdiX0Ih3TU4gRGOkDUly8RsTqvOFTSAA7Yxd4iw8EJcvB54inSGriVYEqJBSgIQkQDVYnN7WnBUCntK6jDUEPZYHeQf6kzyfSNGbeoXSpVtfcT3vhIbwxo0+JZpSPNEH2TuSz+osqDCVQd0vhGnSK/KZEXNVKYNSZBe+FWViIVfJNDpdl3ZSX7PkB2fJ2CISqPAQjKwyKDU3uCJFnAI428C3F9P+oXcKLeZpDy1MPK+sH2fYFkPc0KyPUwA5coeLNq2PRWurKgRWOP4JQOP4I5Q6Rs4hV+NcVY8L/B0rQsZkaUfscKcoEwOi9zmFT2GfwxSJMr8NKhhUylEQhn/wBhWBEztk/8iA4iGTCgzD2WJdAirR+aZw3hBnb6jYlrDVllKd0hHX1BnKPoleD5QlvwLY1N5f7gmje4Jp9oB3lzOm9W/cCLjFZ9yDLBiTPv+qgHRTdRcEC9VB0PoZQ8w+jC7AuLcDZwTIzODWCqXhwYXheBBpgDAHs7AgdjM2QR2Zc4lbKFxJSTldiQOc7aaItRYrTknZWV2jgZozTF3R3bmeiDy0zRHRDAlSkRK2gWXamdjO59M7jNg53nycI+S/8Al/oMzxqVGC1lEpATsStpAowEzyZc3REBdyFBUA6wvAnZYFdum6g9xlOHAF0Y8kRde4+EpLly4vkwV0JIJhHNfFLCtB4i7vOzE3J+x1Y+2Xh7YFQDyACwCBHB03dDQcBFSsdWNJZwym0loxCUY5lQIr3Cj+7FtCH/AIYPuPUpyqoMuSaRxLmRvOlzLKB2FSoCDqqZcLrUOfYX7DpMlOdkJM0BwvEDXEB0XBadj+Q6KNm5/sFvtl5wW9ro5n7j5hRKIb86IfkTaSgUZEBFdfhNW+MdmvhSXVI9odxktmI6e+mU6X8xk3vTNGfpFekdF8znHwImC/kypzKeZHlQRhpVEHSUCho9wEOecksly4ux/sJUHAEuPtM1byxihHwMNYEGUKJ3wqVg6jSig4MYNkGadyCBshj2bh4rauajwSxFFFBKqAMy0gQ7gNlzmEA6VVFbQtcZy5eDNUCGOomjrcdEz+KVMsVoitfPTrT8UrGpW/FDTFiQD4koqZ1UvzKTtRo0hlVrC20p3nbLuYS2B1bJ6S+KcNvcas5NeoFZkZh6mlnU7WCbZlaY5r1/tIJLwuVVGoH1CHRkqjuRaNWk7q3P/Li+sF5dvIWrybTA35qMIZpE8GDGvED6rKuFOVO5G2XYWonn9qPROizPWHBX4QyyHI3iwS/YfBCWQCyP1ghz3n/AgtVZUpUzNHMIw3KlSkzLk/vTnPgfTceHDR9suVAylTP2CwCBKQG0tCFWYglPwnHXwpOAPCiGnubi1Bqk0NPpAIyoCU8ENrSUhxHDD+wZYTXG4yov0gzhvuwpo+RIVXPRG9It7KYErC4sIHmNM0iyhKo3WsDi5CF+w0ydFRthrHW1ogsm24B0Tmdsv0RzCIeVoGCgwLPFlBigFWXEVQFiMG1mmXLlMHp0dPZpn9/Vfi6c4QaRmXijOI1AajBhc+rHGk0WQBXqRimPyNMGaJp8nRUVjtDk6cw9llEpxLNidlGQcdM3M66frOyHDIv1fCPGpH8QOd6l8f3ETQ+4WZ+akN+avETKtbPU5Y/9qD6BgmcZ0+x+iYMcNV2HwhHBCPaIjegjEn9ia7nupklhzkwtmCy792FI1O2WTJdmGo9jG5kQAsKEAAOb0odDloqsRyytFO80jcpBL9Lk40BpbMjuw0MRjDM4fZQOAJUrBjt+w+EIRZBECt1YZ+dI6KlkfLwFW1aX9OFQO6gzRKhCuoZqfzgTln/hWVaP2gOknKpewxiEueUATJfVRHf9pN/8zVr6ajk/tyg1JsvGsoW0bD9jtPsQ0Se4h3JmKGhBsiEqEs88IRmkeULwkmqwKI4VjmYEXVhp/shgyzGmOFdeiO+ww6DlBl05iaMSJM8CMQK4qqXCB4LWs/ho6R+2W8WAK7YZBgrzPSs5yh+wxJc0WuIwNgrPcN94cE9aShBV1FwEYO0zpyv6gdGYN/684ErCkogtOw+CURMeBENHPxH5AX+4mUhT2xZQfhSjT22gf+Mj/vQfLrQqaoJc3aT3B8vEcv4sQDTb8bqVaD2mvaPIxG1WBBPpDjRpDdsFyzAO9t8IMKIx0nDlXizUgx6zlE0KBzMmeQYuoQIfL0q1wf3AuXgYqAiWvb0m3By6zMizmL/9XhmPy+Q6HRh8C1mnjLxzj5gZdGtDlhixZcEqBKgycoMpTeLa/KLa/GO0SLlanlgQrwnAKPyYnp9iU6P5ijVf0h25tzUHr8Bhvj6IhqEc6PTKCiz/AGKI0DBwVtBRBXSWRWk0YLlgrLHPAj0aWGPnCFOZ3oc0MNYFEs6Kqgy6dp2YYEg6MSjqMq2hBn84FAzlEMxosIqUFePEwFggPQlkSqrH1ABnLABQYAOGjKjhMzlL5hTm+9IUfJ9KGJgpbVkHYcQjNLdCKkpNOXJnUKbeiI7Xn7eep2nIfAMMsVXIP4LEwCqkNmUjxIj/AASjVaiERar+zhLwpU5F8YHo/YTinGstE0M0GGo8SKnPzAZccx9RIVL2gqbABRqRhgQPhBP8kF0D7iGbCvJM4g0V6uCDKOxAg8Omhj3BdPkh0lzGs9M4PaF6jLTe47K8Ef7Z1Fqh8svgVlHZhBQ93OAMc3ZKErFparTfjNCOdA945APITUDGlLHfakcsLlxUnaaPQsFnsQwvBUmMpMjO8XbLWrIGGlhlYVEmpCQlERCpFmZZ2yB6Ce2doe4gObNqp2PyHFcdhvbGrMeo112IGfynYHkZy/h/oRoYT7SnEQxOInrmy/Kd3As2J5ge37KdYub4cXxE4Ft2nIw5Z3p3IFRF5t2A0vxI7erg6fhQ14EqVgzTdnQYJTshpiBdUQm0H8T8qHRdyef5B6Sn6ofSJYdq4ACiaIGd05dj4m0iv4LDpzcr+Riy5m/8Cg5ulrXqOF9ERKDnBmuUupTQC79Ni8tH9wUSpRHTeH2UgoYvr8IvWTZdzwsCGk+8C8DRY60Qe75hig8wpPtE3L+kAS72doUa/BJujrsMG/kYVazyJEEOjAGkhnbBNG99C7hJ/YY3KvKhoezBCIzVR6lZVGWaMpDNUsRqiDbYaNPcBoZUOFy4tRNkDzD/AFyIa/BP7OFwP6GUYQIxayaBqPWa45hNHQssAYXGZh0Kw6YVMpUEAgMCX+gmtP5WBg4ZoGSBhUSGvNDSUSkpEVpCcqK6hHgjxwCX0tMhbGbONzigOKeyWIiowWwncS/KeLhJz8kX5UE2QbQzvEBzLitOwPQQcKgdXRhIZpUXAdLy+7/EDoZnVdr2W4ABpiR+uaNmpzN9lB6WWcq+uLg7Hhv4JbSpSEeTzC50GFFqFqAoIUo4lstoC84VghHcHSRn0R+iDFI5Rhyfi1KxWoB8MzcBZjYgwOs4k8MCZoI1GSlWQx/YTKSqTspKmw/El7B7Jfr0GaliGj7jLv8ApJVVO+agGofBjQWX3GGN5ZsXP5CJEjOnkSamvc2X2jbs0DD8aux4Y7a/Zvv2TTyV8QrVV2nYH5j/AEDHLP6hrZlkDFj+0w3oG1+EztfhMsmu8IAOhjq6WRTRiRjIZQx0YTFgzh/S1OuBoOkXA6HSDN6dM/lQrEn7oQZSpUolYiruluydrKNBHv8A2NX9yZOd1HyO2iV/6zLoH1L2XjLKJTnzDfwGFOf0JzQoaYK9T4mWWqhCRaSCFhqdnBNEgp4UZmf9EslzMQvnaVOA9fIYXLjRT8DBxzE1SvcEXtdblJaArBhFLCU85QWdNBT00XrOn4MXA2cz/JoxWOk1nI+s50Ycx/fALmd8WyPIHQH+YrHhv1gLsnctDYGt5ohBYu+GvEYODHfaR+dFEJ7iHLCsX1ERr8JotFCGwJ4RKmgQ7B/GJs2+RBSs7qEFMnPCSve8Qbz9GUa+sGc4e0cXIvKGkl5idPuQXQYUBd4rXQwbUNOhU5pIErBg5oEMdJNJDAmiaoGDLevU6+MDBjo8MDo0TW8Ljlbgg+bpWjnqAt8H8noqOkz25f8AZUrAlauQ+iBhUqVCX7G+rHVB9Rcpq8SrQJ2n6y5tEauxCyOm52lbZH/iR2PlCmqoCdjg2pERMl+JlZr0GOuXxTO4YDpl7PEfdEPTtNqAv+SXmX0ncJsoX6sAANCZGlYMvXKT2J2vUsWXj6pfAOhlXeXfkHRU/CYPhjhBRpKkNCwIoL5w17f6LA6q7IDKfEZPKH1mQDpzcj+JgRMFnzDBWLM9+XgGBIclRUNsdjKyxjQmqI0MlSplx14KjA8trBpaMo7R1zeoof2IBpXwsKlOvlKTIfqV6ewGVbnzFBkrzcd9fCl/Y9Md1eKgazOK9UeVBC4FLmezGGTPmUg4MLdg5QxWk0Qx0vRf6M8KsGa/Ih0MrXDoWTNC7unK/dDR9jBwIb92aMSMRZ2EOhZTMvJf3GsKtXf8M4dLDyoMHQSXSx9ymQDoqBfb/dSokrDtLCk8CL6j5F2PwgVNPFR4MOagP0TVyfaDNPtNiPQzsXyJYJ0IFbyuWWztYSasORJ3H6uJrR9odWwzQ2WK0+0F0b3K8kuXeIt+QejtMn5EdWn8UsXLNLKqlcQmjA+sYFuq0IEV3mWBWGbhKZuk516rpzl3TR0Ok7g5sMVqGwUdqQFmvEEAUGGRd1FanaGhO3sIY5ojLGsCtfMEqJK8Edsl/wDjis8Re84Ch0S+Qn+mQBu+oHqkeF9huqJZDaHzCGtPIzKCQn+aGqkx3L/oasIOKgloCZ+GCrNTPsy9MoQEjsJ3SJgqLh0aWADC8Xmgy6dL5ekyq/afDCscr9mDsx6cwcr8HocBfMR8A6ShbH6MTC5nbg/JcXCla60+jBeh/wDMAdFT2H5CwMKlREyiaq+sXqPkU1g/6uUqoE1wojPol3nV1OBfGU9PyWBL2FCIhRu92StHFiiYQrcmjEOn4qUDOYpzD5Ud8/GKVJYO4CBkWvJCAoYq+QfwZlOhcpnVqq/vSyqGjodLxMghillRvTkzhOassWCEBGEnYkzjAJeGhNHRpmiXLlyyZTFhWGiC2BKSspMjCKM7KL6p6gRoIvacBeFKdPvc4PcMGOrTUywmyVgjwWiUiQlICdidqduJxwO25wwBqWMDcoGAbMvaaFc8kEB3IEZsOaCaCd8ncii2wv5IRcswWCr8t6bhwoaHgYGLsuB9QzP/AEuhiazYftw6FlHlF8HSUfZflhFiwZcVvJ+OXSKPHyLpod2UNdPXfbH1QhKwN8pH1gYCKSkapDe1xFW8/mojnBEPic7S+v5giXbVKZZQdU3kMR0TyMo2X0ie94jPyMnOkuhgalSnRe7/ABLN55CBLP4v5g3+QlBih/zFfRY+FL5utQYY6DtgnNpgVEBbCn4ELKhKg8YECJM/rCEDD8U0kYGCxy0YXg8nGdOMdEHRfSRZXLzEsigN52ktg+TBmRgUlbXEJYy5ceU1vTqQ/DCpURDQm8BlAsrD7BqUlk7SduBfgIl2II0+0y6kFy9QVcjAtA2pY2U5B9lAq/pDfKIgbS14GFWZeo2qBbHDeWXCSppB8wXQRS0UJfslnQsao6v90vCyLKi7H4OAy4uDtXP40YXLlzPTqa3cv7F4XgrLh/4Ont0/5Cj4/gh0C07A9EDFYvEEMTBNrVP7gY3p4eGFSiVF74D0pUqLahjqn9RXIAGVQ1ivhSZ1geHKHLxNMpMl7EBAEgDBfmd19xPe+BDfKbdftMxHlUKdMG0+kTKEeGK2/ZFgZNPoYuRDFirwzIIMGOBXA5EWXCMFhED0ox0dFZfXX2YKMBSZ8yZiMqodGUcMMQOeUWaszQDSlrcdjLKFTRLMhGC616XtcNll/m7XEGsSHawsHWOTDD2MeJQRAyg/YfdIzIoC7t+MMPQMEhc7LGsEyqGNTSwV4b+4VKlEOTyH7AJrMb0l0DXWKat6n/jRDCv1T/wLF0sHZEENe+0dg4gVbRehO2bknMHK4yYHd8XC7HxGTt9jGnTXmVFzWRbX7JQ0o9MG0E/9iCVRUW8sG0+0TrJhuMOawvhsvG5ZvLXOqJ7LheLs+RE6KO6z7AFwHSSwdp8MHF+cPwWGmBgqbgZ91vuPGjtSOoqsnt6X5ahpcB0VHfaohDAmXzBMogBKlREAxXahHUfCf+bOBHhSG1fSylkXuA73yIA3Yq2f0nIsA5i7lwDX1AwLUvactfImBJAS+GMApDPeGAID4TTEjCZHDlCDUGIjaDSDLw0YDBMDpdI7HvHDUEd2XCpUHIcjggURZRA2yVK7IsPUgli7TOeDEFTQgr3mfTbmUiV6mgzPRk3cQ6i1CxBLqaZRFSspSyK7p5lg1hWl1Y8gtmaEEg6nu4OLqGUzAtm0HVpO33llXWlysXb4Uy+F0kQFFiraiaUN5diAAKAjBEsRJnThP5eN4dtm/IajLgkRLe6f4JWBh6Lao8G0p2ItBVCzli2vzjVVIoqh4UJqI4I3M6UVlHbGH+sJQ5eBir7HhgEbiqKpVpqpEnWg3F6EC1/Kd5+oAkpQy7mGm08iQT/KQbT7SxmbhGuckTIAgy8LiLm/DLEjD4F/yGnQ08qEVf8ARihEhBcNCRZdCbnIfsXTn5H8IKDcvB2PJl6ly8FlHyoQx0HkmnGokP3gYKxXUQVg/IKZy7SeFlDQPEcEqHf5Ja6F+IV5fZWZp4jmXpnIXyDmfCHNz0xHUoLzXhhwI5rNw0ly5aaUZ/RYwjzxKgEjNsqkhhoilakFGFhckC30upFzGUNGK4GKQgPUCUJgLtWBAshQz3zQuuGB8rGYBoTUcnvSo6Dmt4DzULBLaNIJbSNGBhn8ENAcHQQDegg8NauyaSDXKKcQKGdZxlJwFp1U2iA26yxZvP8AEJeLO3EMg7EXZE0hZAxG3JcpTHK1CaUvKytYHYFiaIx0gDVY4lH0M6I++0LfZH2QWJsdVH3LxBM//TRgYv7hnHsWzRbPS7FYUSpRM2Vo/K5RxFNflAKV6lFenhSHDqMzXVixV4OVty2UfIMacvZFne9JG4DQtLHFxRA2mTNiu79aMLv5Z/EzdlXMCVYgFN2wPne6ZqQaxjzBNG9y8KGNFEBdkuLKYDH5A/nQWOh4E0QcajUTvK4MHACjmDSD6KEGKIFlItTLfFI4KvJQgYMZs98JhUYS3zDoTXlDlDFgzwIEowFRhUdQi/8AgimstnX2wLlT2wqyP3A9zyES0PyVHIlECND7gOr+k7/jEtT4Z3H44PQwL3eVaR7mcEqYSmcXC4p2J2mB5HHdEpFjDuE78F2S41jwsgNQtM66zlxYfWEygErGoHc1jcuI1boQl4i8RoHmOyzHLepl7N6suXAmVcOt5X9l4LGaf/bCafEl/RiKadczH4OKwRq1IHktZnyBu1SUxhpVXR2vKASKFeyWgSmbtCt6ZeDOzCfCHAFl9RRF9S8HMeJQb1mS2FgKhuVHEIq7mBZKDViV7uqMnwR1B7oZsFTRYo2W5Q8gQWWi97N+EvQmOwwzl37SgUNU5eAQcGLP+sZJgYMaEQCq5AEu8B/meWajgL8xkMOgusESJG242nYylkDLy8sqIp6ipQfqpdX+CIOsP3jJVGine2ofymDKt3BzSJZX7JkX5ViIzPowrNVUp0IWAh3zn5N8HtDJyuLyg6Kqd0BgKGwingjNBARDNaIBiwfTfWFwhUGIQ7rBygv/ANggwpXeJfzUReZgXfuwahDBZPdmmEMGKxXmD0KveHLoZ+yEMXQTRBhgMos0JUYw5kBKJUYo6tEzrwypWFTTP5pUqVKSooVMpWdidqduUVEMk82d/gDVGRIyaVKt/wBzIzP2JbokcxGDbKUh3X5hOyhD3N8DDSCA5lmIJ7v8oOKg3oDRjlFbcp+vSCzQP4Fo950uGwQtlbIv2vu4y73JgrWTb72wAAoIxtEswV0s2gyp+19ylg3kPYAgN66IAhjYKgkcvYqt8TC1lm67EAis6nvuI1Q27McwIXdczIyiy1QvB1YIJXQrySaqhadiUz7UX+5M4io8XXAOsqUeEiMb9EzNa3q8STR8RfUK4dezIDuxhB8i1FTwAOMptfvXKkOcqTM0OCNpq2vjAVZmCFF+Dh0Uqd/5YQkEyl6CbrKo0osE1HJcP/ptQKgInUJ+2QMI+ovyWZgPGU2avDitAcLCxIvRCw0QtLzgECzuMT0X5h+2zO2C5NHslwy/EIV0G8mC7IoLY0zhpECeoASsniFRQQxz9oiyhBlzQsZSXL6DoIYsWbzEQxz1BlDFZYBgsuPMmjC49eiH4w6NDNL5hiwWTR0MGydmHSdq78DCpQkR4JTBTiPClKozkXUztP2J5fsb7fiE4sF7F9mTl+ZT/ggjdzOMv3DC/pBmBplaKtTuRLX5TtHtBNj5UHTgV+CUsjuYJ/ng+n2nbfY8xOBKXoyyXB6FS5RpZ/gEagJeuJS2uYrC1igzozQe0zcYfgGBjanAohkKj9bj3IWm2becQEM/zbg9AnCXD0IcBUt9HNOxEGoNJmCDW9TiGTvekdJB7q+0YCjoxAbAh0Vg2Fg/hDTyZB8iNhCgfREE7A1UIAKCExoz8hDmOqzOvHzQRx18whGMqjYykY3oBDmB/cnoMYjvZghtCXbc0EKb5lVcKZ/DKlZgtzt8I8N8DWKsX1+UKoHfKGs3ZSG80MxTKCigdPsTLue0r3faR0B6hIb6aWQQzCUrQ+0NynkSD/5Y4tQ5lDWQYMuL1doizc95eDjqIcsDDTNcMXBaIsv+homt6GaIIOjb5miGFdeaZZR36a5Q0EvoSh3X50ln1gejoqAvhyn/AFaYoiTTgOr2WUdiOqT1P/PjIZddcgya0CV2h9poo+sdsvjGijzIShKEgoM6VK9D7I2NSlDXfDOw/s/yVDumazrTKJf4icv2Jbf4ytzD2hcUgithhmFHkSDQ/wDGQ0U+EZUIQrWBG1dl9qwYuAyztX+zlgliQzJtn20+sqzlBIGGdFUqZpXW8NL/AOACF41DZ9z5BMhCMh6R3Snruyg/CYXzn9hDFPp/NwSopdp2hZXUiyhYFA7YGSUGoIat8ptLE+Ahiz8MycCBAgsGc4CUYTWL6/CFX8UVnSZ6g+ChaIe2b+ZRp8CIaeyKkW/hqA7nsQNzXoSrWBvhF9m+Mu6EY0faHCgxZuE0wxWWGQReGlFlLjFy+vn8nQzRBkSsWayBljcY78R06Zk93TmBz/JDpC9iR0OkVr78HFkQNFwcbix3tgb8gy+i3eD+EuGOc5PybxZUYo8h/wBSpRAlu8VaoVy38D+8DLoNy1nxK9B9RjG1GbsR6AYURmkVECAHL3AwCyE4TNLLb2MIu+TG2axHa+Io19VM7RItGvkoCuCaOgFgmn2qGm+0q6JKSyZhN3MQcBjR3nbCJcvU595Y7vH8EFB2wJWFQC3AQiVus6CPUqRljowe2iCDAMioif8AmZWUF9tOhZUvJHkwMa/PAhgqSXQgXDEmBUrKQV3BrQl+z5LdRFtk8LDQH7RKn7QYUEoaB8xY3X2Vcfll9f6hd8Ca/GdkeRhu4EWK+0aZCWRhjz6llGMhjwZXO5Ld4RZylzgOZZLiwgLhp0aJmXpOnPxOggZeQwuXiZ+P8noY6S9/LYDj9NH16C4We8/qY3Ll1HdTUvqhUYOCvkN9XFYOAzeX2HoNYfIf1Dp7ffwztEX50oU4fhaUTKURCGeT4mcQZ/Kf2AwFsI9lIkqN8OZYLSAq1Q6sAd53MybnkSDMl9iG+PUCTcQAS82CoRfGFlIeVNe6eRILp9YfM4NeYuoaEBASo5TMnY+EuBc0FZpKpp9yhyhBoB7QwSSxhnWToNkNzDQgSsT9pUroxygQxc1gMXSR2JXRtTRhUSDNCwAwF9RAaYMaI949xJocIafef9B1aGELuyol2lOJ2peSgRHLHufYDoo1SzFUl8SdrGerrjpVdso1XyX7s72COgdmENGQnelJSUisfL8hp0Oka9rCWXg6GNUd1f3C8c3IP9wXLxA8gf2BjFgx0nZi+F+5wZeJU7fnB/eChBwI6bhRCOocQlSr16fzxGDSjcD6hBUIuDDdvWh4Ah0EbpY9LAJUCWPhMVvykJlghEvI0/ZZRMNYtaIqBKGnLCKBMrPCxByOCjL20xNv8iFPkK21QGi+0m2PwlqIDUFDNZ/ZF5RbsmFkXlM5X7guQnslkWMfJl5QxzktBDFhzO8OimvklK6HADozhBQg43lhaIMWLHmiyMWLgDlLix63kytcLwZmjRixlWOioCmDLyRDgdqPARS2idQle1Spv9S20g98Vm7uyB6S7B9Szumd29s5/rLE2BzhufuISDV6SCaj6gkz04hMs4E0n/3If7yX6CEhXJER6DM9w2DFxqU1/sQUTt/HKlOKyuP0SEDDSC80CPogBmgR8hgYZrmlT2pcGXgPBH0Q6GK+R+bWLgF4Qf5DSBj2a/jlA4/i6UL4/uOhmYuRmjDVKiZTMfKwBKwWUFzNbaK6/KL2lgOqeFM5Qw0g22YwPRewYA3/ACQPVfpEdvhOZUN6XKD8BcNofKgmn4Yf7OZoN7gOduh0fiYAYrLvpmvNMMKjgDKVjkcShC+goNIww9Zpn58KlYajzDIxIkzLxDo0Mzh5XFlzMzlIdDF94wlRMNEzf99JREYay4VooentnbRX/FHgQBsEPUBofkNkfs1ZD7jQB98DA/vBHoMaFrtK9PxGc8z0ynaKBQnaQnKADOBC0+Ibg+kv1CWzs/UEqA2NTaH+shxe6n/JTRPyy60o/kWZkAh/v5qh8MVN2qis8Cze5PUkuXLhA22PTf8AbovBW7/KPpV8RvoMBi/Yj7CA4A6Xb9p8EDoqrf6RZo6FiCt/nfQwD5FNEMcqe0qneBjRKBc3AqELakU3vUfrIhydZmWL2gOnvzlen1BTVvUyAa8qlFS+GbhPCM7vhDeB5I0yzI5sUf3oDmWS5QmLKGKxWpohHGaDFYtxZ4ORLixS8DBw1Z+eGDGL5sDAmjqerhXAw/4XMOhmaZ0aGfyoRjjH/S4gdGYf+qmjEIzOvj+GFYbQkxCHBlEBd/1nKSiUlHE0CaTK0zUm9RLQfBAZhIvZezjtkCFNbIi7qMpafaWW70cEvfwJtLK2m9MJzPSMZcXJmQpGXN4RVPH6PoMT6j9IdBNa3ZkIRgNmz/jCY6fBmb3/AMwhimntGjoP6oD0zfo/KzTDHSwwdGrzhygXKlOIttLbJrLdsDNH7B0fVATL7RSuTlF/JFlfiU11LlsFvFljcTJrF4LHDXpBjHD/2Q==;" vertex="1" parent="1">
                    <mxGeometry width="1418" height="388" as="geometry"/>
                </mxCell>
            </root>
        </mxGraphModel>
    </diagram>
</mxfile>